<svg width="97" height="103" viewBox="0 0 97 103" fill="none" xmlns="http://www.w3.org/2000/svg">
<path d="M3.98486 102.5H28.0797L30.0785 97.1178C30.7865 95.2112 32.2353 93.6782 34.088 92.8398C35.8331 92.0499 38.1815 90.6163 40.4583 88.0601C44.8887 83.086 47.2396 77.7501 47.2396 77.7501L32.3072 77.6768C32.3072 77.6768 33.6511 69.3221 26.2295 58.2257C25.4351 57.0381 25.0738 55.6127 25.1976 54.1891L25.9011 46.0963C25.9011 46.0963 30.9443 40.4589 27.8501 33.4649C27.8501 33.4649 24.8913 29.3671 23.7174 30.8673C23.7174 30.8673 14.7798 52.1557 13.966 55.3211C13.1523 58.4865 12.0673 60.4761 13.1523 70.4244C13.4395 73.058 13.5427 75.2544 13.5391 77.0603C13.5322 80.5272 12.758 83.9492 11.2759 87.0832L3.98486 102.5Z" fill="#F2C7AC"/>
<path opacity="0.2" d="M26.4578 88.6654C24.2213 86.1817 21.1145 86.5738 17.8473 85.4409C14.5802 84.3081 13.5322 76.1401 13.5322 76.1401L13.5319 76.1389C13.5371 76.4472 13.5396 76.7465 13.539 77.0348C13.5321 80.5017 12.7579 83.9236 11.2758 87.0577L3.98486 102.475H28.0797L30.0785 97.0923C30.7865 95.1856 32.2353 93.6527 34.088 92.8143C35.5732 92.1421 37.4953 91.003 39.4384 89.1031C32.8021 91.8933 28.6943 91.1489 26.4578 88.6654Z" fill="#FFC0BB"/>
<path d="M79.164 32.9859C79.0792 32.6166 78.7489 32.3412 78.3539 32.3412C78.2814 32.3412 78.2112 32.3505 78.1441 32.3679C77.9493 31.951 77.5263 31.6621 77.0358 31.6621C76.9089 31.6621 76.7867 31.6814 76.6716 31.7173C76.4076 31.28 75.9279 30.9875 75.3799 30.9875C74.7279 30.9875 74.1726 31.4014 73.9622 31.9809C73.8132 31.8978 73.6417 31.8503 73.4591 31.8503C72.8877 31.8503 72.4243 32.3137 72.4243 32.8854C72.4243 32.9192 72.426 32.9527 72.4292 32.9858L79.164 32.9859Z" fill="#EDFDFC"/>
<path d="M69.4821 8.62943C69.2607 7.66547 68.3982 6.94627 67.3673 6.94627C67.178 6.94627 66.9944 6.97064 66.8194 7.01615C66.3106 5.9278 65.2063 5.17362 63.9258 5.17362C63.5947 5.17362 63.2754 5.22403 62.9752 5.31757C62.2858 4.17579 61.0334 3.41235 59.6027 3.41235C57.9004 3.41235 56.4506 4.49299 55.9013 6.00578C55.5124 5.78893 55.0647 5.66492 54.5879 5.66492C53.0958 5.66492 51.8862 6.87478 51.8862 8.36719C51.8862 8.45572 51.8908 8.54309 51.8991 8.62943H69.4821Z" fill="#EDFDFC"/>
<path d="M60.7442 16.6424C60.7442 16.6424 65.8478 13.2258 67.0132 15.4768C68.1785 17.7277 60.3826 25.6928 60.3826 25.6928L60.7442 16.6424Z" fill="#EAA0A0"/>
<path d="M60.744 31.5089C60.744 31.5089 65.8476 28.0923 67.0129 30.3432C68.1783 32.5941 60.3823 40.5592 60.3823 40.5592L60.744 31.5089Z" fill="#EAA0A0"/>
<path d="M60.744 41.6544C60.744 41.6544 65.8476 38.2378 67.0129 40.4887C68.1783 42.7396 60.3823 50.7047 60.3823 50.7047L60.744 41.6544Z" fill="#EAA0A0"/>
<path d="M57.1744 12.8032H29.1568C27.0705 12.8032 25.3788 14.4949 25.3788 16.5821V63.2169V73.8563C25.3788 75.9621 27.0903 77.6353 29.1568 77.6353H57.1744C59.2586 77.6353 60.9524 75.9458 60.9524 73.8563V27.2216V16.5821C60.9524 14.4763 59.241 12.8032 57.1744 12.8032Z" fill="black"/>
<path opacity="0.2" d="M27.9271 61.0082C27.9271 61.0082 22.8595 73.4165 23.3511 75.7628C23.8427 78.109 26.9179 81.2463 34.463 80.2005C42.0081 79.1548 47.2233 77.7565 47.2233 77.7565C47.2233 77.7565 47.5386 61.0105 47.2233 60.1613C46.9079 59.3121 33.3418 53.2844 32.8081 53.2844C32.2743 53.2844 27.9271 61.0082 27.9271 61.0082Z" fill="#FFC0BB"/>
<path d="M59.1478 17.9805H27.2371V72.5118H59.1478V17.9805Z" fill="#EAE4ED"/>
<path d="M49.6851 16.2527H36.7134C36.5247 16.2527 36.3718 16.0997 36.3718 15.911C36.3718 15.7223 36.5247 15.5693 36.7134 15.5693H49.6851C49.8737 15.5693 50.0266 15.7223 50.0266 15.911C50.0267 16.0997 49.8737 16.2527 49.6851 16.2527Z" fill="white"/>
<path d="M24.7337 50.98C24.7337 50.98 24.9262 51.6959 25.3615 52.0481L25.8789 46.0963C25.8789 46.0963 29.5889 41.9493 28.6925 36.3561C28.3857 34.4414 27.4337 32.6793 25.9775 31.3989C25.1463 30.6681 24.2333 30.1798 23.6953 30.8673C23.6953 30.8673 19.4923 40.8784 16.5883 48.191L24.7337 50.98Z" fill="#FFC0BB"/>
<path d="M59.1478 69.3113H27.2371V72.5369H59.1478V69.3113Z" fill="#0F4B7F"/>
<path d="M59.1478 17.9805H27.2371V20.8744H59.1478V17.9805Z" fill="#0F4B7F"/>
<path d="M24.4737 36.7472C25.635 36.2129 26.2413 33.1905 26.4584 31.8319C25.5264 30.8941 24.3574 30.0501 23.7179 30.8673C23.7179 30.8673 22.7925 33.0718 21.51 36.1673C22.3868 36.6555 23.6053 37.1468 24.4737 36.7472Z" fill="#EAA0A0"/>
<path d="M53.717 53.8928C53.717 53.8928 49.4071 54.2546 49.2564 55.4002C49.1058 56.5458 49.4373 58.5656 53.5061 58.9575H57.7205C57.7205 58.9575 56.4596 55.4605 56.5199 55.3399C56.5802 55.2193 53.717 53.8928 53.717 53.8928Z" fill="#EFADAB"/>
<path d="M46.8297 70.9989C46.246 71.3087 46.0428 72.0467 46.3743 72.6185C48.3575 76.0399 56.2438 89.6369 56.9547 90.7429C57.7684 92.0091 59.7576 94.9935 66.3581 96.5311C72.9585 98.0686 75.6711 102.5 75.6711 102.5H96.0149C96.0149 102.5 91.2228 94.9031 87.2445 75.1874C87.2445 75.1874 84.1703 58.8179 78.3836 59.3605C78.3836 59.3605 74.8574 55.6525 71.4215 56.376C71.4215 56.376 64.9115 52.4872 61.2044 52.4872L52.2999 41.9611C51.4186 40.9194 49.8651 40.7152 48.7816 41.5445C48.4331 41.8113 48.1673 42.1638 48.0938 42.6293C47.8225 44.3476 50.083 48.6887 53.6997 53.9342C57.3164 59.1797 66.2676 75.8205 62.3797 83.1461C62.3797 83.1461 58.4014 80.1616 54.9655 75.3683C52.0882 71.3543 48.7038 70.0041 46.8297 70.9989Z" fill="#F2C7AC"/>
<path d="M61.2473 52.4846C62.4288 53.4963 63.5361 54.5936 64.582 55.7466C65.6235 56.8801 66.6218 58.122 67.5283 59.3742C68.3617 60.5282 69.3383 62.0827 69.9592 63.3752C70.8017 65.0837 71.179 66.3507 71.4291 67.8062L71.4026 67.8116C71.0834 66.2974 70.486 64.8523 69.7701 63.4733C69.2765 62.5026 68.3058 60.8964 67.3082 59.5323C66.4077 58.2699 65.4348 57.0602 64.4208 55.8871C63.4654 54.7848 62.264 53.4954 61.2288 52.5044L61.2473 52.4846Z" fill="#EAA0A0"/>
<path d="M71.3342 56.3545C72.2956 56.8465 73.1529 57.533 73.9106 58.3087C75.3353 59.7447 76.5026 61.7144 77.0849 63.9306C77.3185 64.9148 77.4695 65.5815 77.494 67.1382L77.4669 67.1403C77.3778 66.074 77.183 65.0168 76.8806 63.9912C76.2262 61.8623 75.1989 60.0411 73.753 58.4533C73.072 57.7077 72.1822 56.9036 71.3208 56.378L71.3342 56.3545Z" fill="#EAA0A0"/>
<path d="M78.3134 59.2668C79.1637 59.9098 80.0209 61.045 80.4383 61.8143C81.4018 63.4701 81.8575 65.2283 81.9372 67.1096L81.9103 67.1133C81.5482 65.0177 81.1918 63.828 80.2138 61.9367C79.895 61.3 79.0727 60.0507 78.2979 59.2834L78.3134 59.2668Z" fill="#EAA0A0"/>
<path d="M50.9358 75.1994C51.1162 74.2839 50.0496 72.8318 49.0815 71.7363C48.4771 71.0524 47.5231 70.7967 46.6838 71.0828C46.2149 71.4302 46.072 72.088 46.3739 72.6089C46.9069 73.5283 47.8661 75.1827 48.9978 77.1318C49.8451 76.7001 50.7688 76.0469 50.9358 75.1994Z" fill="#EAA0A0"/>
<path d="M51.7568 46.0816C52.2711 45.9785 54.6048 45.2024 54.4619 44.7769L52.1602 42.0559C51.7031 41.5156 51.0651 41.2013 50.4057 41.1389H50.4056C50.402 41.1386 50.3984 41.1382 50.3948 41.1378C50.376 41.1361 50.3338 41.133 50.2748 41.1331C49.9661 41.1334 49.2062 41.2213 49.0391 42.0571C48.874 42.8826 50.2401 44.8889 50.8426 45.7232C51.0509 46.0117 51.4081 46.1515 51.7568 46.0816Z" fill="#EAA0A0"/>
<path d="M10.9425 88.2784C13.4921 89.8451 21.6999 94.53 30.187 95.5286C30.6841 95.5871 31.0339 96.0429 30.8868 96.4368L29.4041 100.409C29.3061 100.672 29.0107 100.825 28.6791 100.785C26.1779 100.481 15.8578 98.9273 8.59659 93.3088C8.34946 93.1175 8.2452 92.8276 8.33763 92.5799L9.85076 88.5261C9.99312 88.1446 10.5274 88.0233 10.9425 88.2784Z" fill="#473B1E"/>
<path d="M10.2487 92.0853L10.1075 92.0326C9.98985 91.9887 9.93008 91.8577 9.97404 91.7401L10.4727 90.404C10.5166 90.2864 10.6476 90.2266 10.7652 90.2705L10.9064 90.3232C11.024 90.3671 11.0837 90.4981 11.0398 90.6158L10.5411 91.9518C10.4973 92.0695 10.3663 92.1293 10.2487 92.0853Z" fill="#002A24"/>
<path d="M11.758 93.0375L11.6168 92.9848C11.4991 92.9409 11.4394 92.8099 11.4833 92.6922L11.982 91.3562C12.0259 91.2385 12.1568 91.1787 12.2744 91.2227L12.4156 91.2754C12.5332 91.3193 12.593 91.4503 12.5491 91.5679L12.0504 92.904C12.0065 93.0216 11.8756 93.0814 11.758 93.0375Z" fill="#002A24"/>
<path d="M13.3122 93.9442L13.171 93.8915C13.0534 93.8476 12.9936 93.7166 13.0375 93.5989L13.5362 92.2629C13.5801 92.1453 13.711 92.0855 13.8286 92.1294L13.9698 92.1821C14.0875 92.226 14.1472 92.357 14.1033 92.4747L13.6046 93.8107C13.5607 93.9284 13.4298 93.9881 13.3122 93.9442Z" fill="#002A24"/>
<path d="M14.8667 94.7443L14.7255 94.6916C14.6079 94.6477 14.5482 94.5167 14.5921 94.399L15.0907 93.063C15.1346 92.9453 15.2656 92.8855 15.3832 92.9295L15.5244 92.9822C15.642 93.0261 15.7018 93.1571 15.6579 93.2747L15.1592 94.6108C15.1152 94.7285 14.9843 94.7882 14.8667 94.7443Z" fill="#002A24"/>
<path d="M16.4268 95.6004L16.2856 95.5477C16.168 95.5038 16.1082 95.3728 16.1521 95.2552L16.6508 93.9192C16.6947 93.8016 16.8257 93.7418 16.9433 93.7856L17.0845 93.8383C17.2021 93.8822 17.2619 94.0133 17.218 94.1309L16.7193 95.467C16.6754 95.5846 16.5444 95.6444 16.4268 95.6004Z" fill="#002A24"/>
<path d="M18.0318 96.2989L17.8906 96.2462C17.773 96.2023 17.7132 96.0712 17.7571 95.9537L18.2558 94.6176C18.2997 94.5 18.4306 94.4402 18.5482 94.4841L18.6894 94.5369C18.8071 94.5807 18.8668 94.7117 18.8229 94.8294L18.3242 96.1654C18.2803 96.2831 18.1493 96.3429 18.0318 96.2989Z" fill="#002A24"/>
<path d="M19.6874 96.9073L19.5462 96.8546C19.4286 96.8107 19.3688 96.6797 19.4128 96.5621L19.9114 95.226C19.9553 95.1084 20.0863 95.0487 20.2038 95.0925L20.345 95.1452C20.4627 95.1891 20.5224 95.3202 20.4785 95.4378L19.9798 96.7738C19.9359 96.8915 19.805 96.9513 19.6874 96.9073Z" fill="#002A24"/>
<path d="M21.3486 97.4596L21.2074 97.4069C21.0897 97.3629 21.03 97.232 21.0739 97.1143L21.5726 95.7783C21.6165 95.6607 21.7474 95.6009 21.865 95.6448L22.0062 95.6975C22.1238 95.7414 22.1836 95.8724 22.1396 95.9901L21.6409 97.3261C21.5971 97.4438 21.4662 97.5035 21.3486 97.4596Z" fill="#002A24"/>
<path d="M23.1057 97.8087L22.9645 97.756C22.8469 97.7121 22.7871 97.5811 22.8311 97.4635L23.3297 96.1274C23.3736 96.0098 23.5046 95.95 23.6222 95.9939L23.7634 96.0467C23.881 96.0905 23.9407 96.2215 23.8968 96.3392L23.3981 97.6752C23.3543 97.7929 23.2233 97.8526 23.1057 97.8087Z" fill="#002A24"/>
<path d="M24.8118 98.2596L24.6706 98.2069C24.553 98.163 24.4932 98.032 24.5371 97.9144L25.0358 96.5783C25.0797 96.4607 25.2107 96.4009 25.3284 96.4448L25.4696 96.4975C25.5872 96.5415 25.647 96.6724 25.6031 96.7901L25.1044 98.1261C25.0603 98.2438 24.9294 98.3036 24.8118 98.2596Z" fill="#002A24"/>
<path d="M26.569 98.5636L26.4278 98.5109C26.3101 98.467 26.2504 98.336 26.2943 98.2183L26.793 96.8823C26.8369 96.7646 26.9679 96.7048 27.0855 96.7488L27.2267 96.8015C27.3443 96.8454 27.4041 96.9765 27.3601 97.0941L26.8614 98.4301C26.8175 98.5478 26.6866 98.6076 26.569 98.5636Z" fill="#002A24"/>
<path d="M28.3257 98.8624L28.1845 98.8097C28.0669 98.7658 28.0071 98.6348 28.0511 98.5171L28.5498 97.1811C28.5937 97.0635 28.7246 97.0037 28.8423 97.0476L28.9835 97.1003C29.1011 97.1442 29.1609 97.2753 29.1169 97.3929L28.6182 98.7289C28.5742 98.8466 28.4433 98.9063 28.3257 98.8624Z" fill="#002A24"/>
<path d="M15.9727 97.4514L15.9796 97.4327C15.9527 97.4293 15.9258 97.423 15.8995 97.4132L13.8909 96.663C13.6927 96.589 13.5964 96.3545 13.6764 96.1401L15.4874 91.288C15.5675 91.0737 15.7938 90.9596 15.9921 91.0336L18.0007 91.7837C18.1183 91.8276 18.1995 91.9281 18.2299 92.0473C18.3875 92.1162 18.5463 92.185 18.707 92.2535C18.7608 91.8458 18.5514 91.4493 18.1776 91.3097L16.1691 90.5596C15.7289 90.3953 15.2264 90.6485 15.0488 91.1243L13.2378 95.9764C13.0603 96.452 13.2739 96.9728 13.7141 97.1372L15.7226 97.8872C16.0239 97.9997 16.3542 97.9164 16.5898 97.7002C16.3844 97.6192 16.1787 97.5365 15.9727 97.4514Z" fill="#EDFDFC"/>
<path d="M15.5221 93.6139L14.6484 93.2876C14.4918 93.2292 14.3137 93.3189 14.2504 93.4882C14.1873 93.6574 14.263 93.8421 14.4196 93.9006L15.2933 94.2268L15.5221 93.6139Z" fill="#B7D972"/>
<path opacity="0.2" d="M75.66 102.479H96.0039C96.0039 102.479 92.862 97.4976 89.5543 85.1355C88.1028 94.238 80.0943 93.7131 76.9162 94.2181C73.257 94.7995 59.052 91.8371 57.0618 90.9039C57.9469 92.255 60.0452 95.0419 66.347 96.5098C72.9476 98.0473 75.66 102.479 75.66 102.479Z" fill="#FFC0BB"/>
<path opacity="0.2" d="M54.7524 55.5491C58.7412 61.9599 65.8977 76.6858 62.357 83.1106L64.707 85.4308C64.707 85.4308 70.6447 78.8513 61.196 64.3415C58.9972 60.9651 56.8118 58.0441 54.7524 55.5491Z" fill="#FFC0BB"/>
<path d="M67.1023 27.1316C67.2777 26.3682 67.9607 25.7986 68.7772 25.7986C68.9271 25.7986 69.0725 25.8179 69.2111 25.8539C69.6141 24.992 70.4886 24.3947 71.5028 24.3947C71.765 24.3947 72.0179 24.4346 72.2556 24.5087C72.8016 23.6044 73.7935 22.9998 74.9266 22.9998C76.2748 22.9998 77.4231 23.8556 77.8582 25.0537C78.1662 24.882 78.5207 24.7837 78.8983 24.7837C80.08 24.7837 81.038 25.7419 81.038 26.9239C81.038 26.994 81.0344 27.0632 81.0278 27.1316L67.1023 27.1316Z" fill="#EDFDFC"/>
<path d="M21.2566 3.45686C21.3821 2.91046 21.8709 2.50287 22.4552 2.50287C22.5625 2.50287 22.6665 2.51663 22.7657 2.54247C23.0541 1.92562 23.68 1.49822 24.4057 1.49822C24.5934 1.49822 24.7743 1.52676 24.9445 1.5798C25.3352 0.932668 26.045 0.5 26.8559 0.5C27.8207 0.5 28.6424 1.11248 28.9538 1.96991C29.1742 1.84699 29.428 1.77672 29.6982 1.77672C30.5438 1.77672 31.2293 2.46243 31.2293 3.30828C31.2293 3.35843 31.2267 3.408 31.222 3.45692H21.2566V3.45686Z" fill="#EDFDFC"/>
<path d="M73.9666 48.7158C73.9666 48.7158 73.757 50.7828 72.1262 50.9259C73.757 51.0689 73.9666 53.136 73.9666 53.136C73.9666 53.136 74.1762 51.0689 75.807 50.9259C74.1762 50.7828 73.9666 48.7158 73.9666 48.7158Z" fill="#EDFDFC"/>
<path d="M71.0867 15.9692C71.0867 15.9692 70.9363 17.4525 69.7661 17.5551C70.9363 17.6577 71.0867 19.1409 71.0867 19.1409C71.0867 19.1409 71.237 17.6577 72.4072 17.5551C71.237 17.4525 71.0867 15.9692 71.0867 15.9692Z" fill="#EDFDFC"/>
<path d="M20.3808 8.03174C20.3808 8.03174 20.2862 8.96412 19.5507 9.02861C20.2862 9.09309 20.3808 10.0254 20.3808 10.0254C20.3808 10.0254 20.4753 9.09309 21.2109 9.02861C20.4752 8.96412 20.3808 8.03174 20.3808 8.03174Z" fill="#EDFDFC"/>
<path d="M14.4134 33.3987C14.4134 33.3987 14.2038 35.4658 12.573 35.6088C14.2038 35.7518 14.4134 37.8189 14.4134 37.8189C14.4134 37.8189 14.623 35.7518 16.2538 35.6088C14.6231 35.4658 14.4134 33.3987 14.4134 33.3987Z" fill="#EDFDFC"/>
<path d="M78.2653 42.9924C78.2653 42.9924 78.1266 44.3599 77.0479 44.4544C78.1266 44.5491 78.2653 45.9164 78.2653 45.9164C78.2653 45.9164 78.4039 44.5491 79.4827 44.4544C78.4039 44.3599 78.2653 42.9924 78.2653 42.9924Z" fill="#EDFDFC"/>
<path d="M74.8512 12.0032C74.8512 12.0032 74.7755 12.7491 74.187 12.8007C74.7755 12.8524 74.8512 13.5983 74.8512 13.5983C74.8512 13.5983 74.9268 12.8523 75.5153 12.8007C74.9268 12.7491 74.8512 12.0032 74.8512 12.0032Z" fill="#EDFDFC"/>
<path d="M17.8057 28.5764C17.8057 28.5764 17.667 29.9438 16.5883 30.0385C17.667 30.1331 17.8057 31.5005 17.8057 31.5005C17.8057 31.5005 17.9444 30.1331 19.0232 30.0385C17.9444 29.9438 17.8057 28.5764 17.8057 28.5764Z" fill="#EDFDFC"/>
<path d="M25.6613 6.02612C25.6613 6.02612 25.5887 6.74147 25.0244 6.79091C25.5887 6.84041 25.6613 7.55569 25.6613 7.55569C25.6613 7.55569 25.7338 6.84041 26.2982 6.79091C25.7339 6.74147 25.6613 6.02612 25.6613 6.02612Z" fill="white"/>
<path d="M71.9671 38.8743C71.9671 38.8743 71.9051 39.4861 71.4224 39.5284C71.9051 39.5707 71.9671 40.1826 71.9671 40.1826C71.9671 40.1826 72.0292 39.5707 72.5118 39.5284C72.0292 39.4861 71.9671 38.8743 71.9671 38.8743Z" fill="#EDFDFC"/>
<path d="M15.8268 41.4824C15.8268 41.4824 15.7648 42.0943 15.2821 42.1366C15.7648 42.1789 15.8268 42.7907 15.8268 42.7907C15.8268 42.7907 15.8888 42.1789 16.3715 42.1366C15.8888 42.0943 15.8268 41.4824 15.8268 41.4824Z" fill="white"/>
<path d="M21.527 13.0061C21.527 13.0061 21.4045 14.2144 20.4513 14.2979C21.4045 14.3815 21.527 15.5898 21.527 15.5898C21.527 15.5898 21.6495 14.3815 22.6028 14.2979C21.6495 14.2144 21.527 13.0061 21.527 13.0061Z" fill="#EDFDFC"/>
<g filter="url(#filter0_d_129_800)">
<rect x="4.01526" y="22.7388" width="59.635" height="23.8486" rx="0.841751" fill="white"/>
<path d="M52.5554 50.417C52.4475 50.6046 52.1769 50.6046 52.069 50.417L49.8578 46.5749H54.7666L52.5554 50.417Z" fill="white"/>
<g clip-path="url(#clip0_129_800)">
<path d="M12.7964 27.7302C11.9156 27.7302 11.2026 28.4421 11.2026 29.3239V38.8794C11.2026 39.7601 11.9156 40.472 12.7964 40.472H16.7628L18.7295 43.4202C18.7781 43.493 18.8438 43.5526 18.9209 43.5939C18.998 43.6351 19.0841 43.6567 19.1715 43.6567C19.259 43.6567 19.3451 43.6351 19.4222 43.5939C19.4993 43.5526 19.565 43.493 19.6136 43.4202L21.5803 40.472H25.5467C26.4275 40.472 27.1405 39.7601 27.1405 38.8783V29.3239C27.1405 28.4421 26.4275 27.7302 25.5467 27.7302H12.7964Z" fill="url(#paint0_linear_129_800)"/>
</g>
<path d="M13.9205 32.5943L19.1115 37.7889L29.4936 25.6682" stroke="#009460" stroke-width="2.24467" stroke-linecap="round" stroke-linejoin="round"/>
<rect x="31.121" y="30.1714" width="25.3097" height="1.34674" rx="0.673372" fill="#D9D9D9"/>
<rect x="31.121" y="32.2317" width="17.5933" height="1.34674" rx="0.673372" fill="#D9D9D9"/>
<rect x="31.121" y="35.0095" width="17.5933" height="4.15246" rx="2.07623" fill="#D9D9D9"/>
<ellipse cx="34.2583" cy="37.0945" rx="0.855816" ry="0.855743" fill="#7C7C7C"/>
<ellipse cx="38.0182" cy="37.0945" rx="0.855816" ry="0.855743" fill="#7C7C7C"/>
<ellipse cx="41.7781" cy="37.0945" rx="0.855816" ry="0.855743" fill="#7C7C7C"/>
<ellipse cx="45.5379" cy="37.0945" rx="0.855816" ry="0.855743" fill="#7C7C7C"/>
</g>
<defs>
<filter id="filter0_d_129_800" x="0.0152588" y="22.7388" width="67.6349" height="35.8188" filterUnits="userSpaceOnUse" color-interpolation-filters="sRGB">
<feFlood flood-opacity="0" result="BackgroundImageFix"/>
<feColorMatrix in="SourceAlpha" type="matrix" values="0 0 0 0 0 0 0 0 0 0 0 0 0 0 0 0 0 0 127 0" result="hardAlpha"/>
<feOffset dy="4"/>
<feGaussianBlur stdDeviation="2"/>
<feComposite in2="hardAlpha" operator="out"/>
<feColorMatrix type="matrix" values="0 0 0 0 0 0 0 0 0 0 0 0 0 0 0 0 0 0 0.1 0"/>
<feBlend mode="normal" in2="BackgroundImageFix" result="effect1_dropShadow_129_800"/>
<feBlend mode="normal" in="SourceGraphic" in2="effect1_dropShadow_129_800" result="shape"/>
</filter>
<linearGradient id="paint0_linear_129_800" x1="19.1715" y1="27.7302" x2="19.1715" y2="43.6567" gradientUnits="userSpaceOnUse">
<stop offset="0.3" stop-color="#F2A441"/>
<stop offset="0.775" stop-color="#C46E00"/>
</linearGradient>
<clipPath id="clip0_129_800">
<rect width="15.9378" height="15.9365" fill="white" transform="translate(11.2014 27.7285)"/>
</clipPath>
</defs>
</svg>
