<svg width="24" height="24" viewBox="0 0 24 24" fill="none" xmlns="http://www.w3.org/2000/svg">
<path d="M12 1.25C17.93 1.25 22.75 6.07 22.75 12C22.75 17.93 17.93 22.75 12 22.75C6.07 22.75 1.25 17.93 1.25 12C1.25 6.07 6.07 1.25 12 1.25ZM12 21.25C17.1 21.25 21.25 17.1 21.25 12C21.25 6.9 17.1 2.75 12 2.75C6.9 2.75 2.75 6.9 2.75 12C2.75 17.1 6.9 21.25 12 21.25Z" fill="#292D32"/>
<path d="M13.2598 7.72009C13.4498 7.72009 13.6398 7.79009 13.7898 7.94009C14.0798 8.23009 14.0798 8.71009 13.7898 9.00009L10.7898 12.0001L13.7898 15.0001C14.0798 15.2901 14.0798 15.7701 13.7898 16.0601C13.4998 16.3501 13.0198 16.3501 12.7298 16.0601L9.19982 12.5301C8.90982 12.2401 8.90982 11.7601 9.19982 11.4701L12.7298 7.94009C12.8798 7.79009 13.0698 7.72009 13.2598 7.72009Z" fill="#292D32"/>
</svg>
