<svg width="96" height="70" viewBox="0 0 96 70" fill="none" xmlns="http://www.w3.org/2000/svg">
<path d="M80.2052 50.8003L87.2213 50.7584C88.5585 50.7505 89.6492 51.828 89.6574 53.1655L89.7405 67.0968C89.7484 68.4341 88.6708 69.5248 87.3333 69.5329L80.3173 69.5748C78.98 69.5827 77.8893 68.5052 77.8812 67.1677L77.7981 53.2364C77.79 51.8989 78.8677 50.8084 80.2052 50.8003ZM8.80914 51.2252L15.8252 51.1833C17.1625 51.1754 18.2531 52.2529 18.2613 53.5905L18.3441 67.522C18.352 68.8593 17.2745 69.95 15.937 69.9581L8.92094 70C7.58366 70.0079 6.49297 68.9304 6.48483 67.5928L6.40176 53.6616C6.39386 52.3241 7.47163 51.2334 8.80914 51.2252ZM88.1805 16.8697C87.8979 16.8964 87.6356 17.0283 87.4457 17.2393C87.2557 17.4503 87.152 17.7249 87.155 18.0088C87.2247 18.5638 87.0888 19.1251 86.7729 19.5868C86.457 20.0485 85.983 20.3785 85.4404 20.5145L83.6949 20.5253L84.5912 23.1412C84.5912 23.1412 95.8288 23.0737 95.4927 19.3827C95.2322 16.518 90.3548 16.6612 88.1805 16.8697ZM7.37132 16.8697C7.65395 16.8964 7.91623 17.0283 8.10618 17.2393C8.29614 17.4503 8.3999 17.7249 8.3969 18.0088C8.32716 18.5638 8.46307 19.1251 8.77896 19.5868C9.09486 20.0485 9.56886 20.3785 10.1115 20.5145L11.8569 20.5253L10.9606 23.1412C10.9606 23.1412 -0.276965 23.0737 0.0591501 19.3827C0.319615 16.518 5.19711 16.6612 7.37132 16.8697Z" fill="#2F4859"/>
<path d="M92.988 38.7884C92.7782 36.0433 91.9844 33.3747 90.6599 30.9611L85.9232 22.2741C85.9232 22.2741 77.5122 3.31566 74.0081 1.80698C70.6201 0.348085 48.9951 0.0201094 47.5623 0H47.483C46.0503 0.0378249 24.4309 0.62411 21.0609 2.12322C17.5748 3.67332 9.38623 22.7275 9.38623 22.7275L4.75747 31.4712C3.46258 33.9003 2.70078 36.5777 2.52293 39.3247C2.1974 45.3926 2.8511 51.4733 4.45894 57.3334C4.82727 58.6773 5.63 59.8616 6.74194 60.7015C7.85389 61.5414 9.21252 61.9897 10.606 61.9765L47.8512 61.7611H47.9305L85.1758 61.5396C86.5691 61.5358 87.922 61.0711 89.0236 60.2179C90.1252 59.3647 90.9136 58.1711 91.2658 56.823C92.8054 50.9431 93.3869 44.8534 92.988 38.7884Z" fill="#FC9E20"/>
<path d="M29.6612 50.0546L65.9561 49.8379C66.2679 49.8361 66.5677 49.9582 66.7895 50.1773C67.0113 50.3965 67.137 50.6948 67.1389 51.0067L67.1758 57.1867C67.1776 57.4985 67.0556 57.7983 66.8364 58.0202C66.6172 58.242 66.3189 58.3677 66.0071 58.3696L29.7122 58.5862C29.4004 58.5881 29.1006 58.466 28.8787 58.2468C28.6569 58.0276 28.5312 57.7293 28.5293 57.4175L28.4925 51.2374C28.4906 50.9256 28.6127 50.6258 28.8319 50.404C29.051 50.1822 29.3494 50.0565 29.6612 50.0546Z" fill="#3A556A"/>
<path d="M74.6882 4.66717C74.5025 4.26272 74.2066 3.91878 73.8344 3.67477C73.4622 3.43076 73.0288 3.29655 72.5839 3.28752L47.7662 2.77832H47.6882L22.8777 3.58366C22.4331 3.59819 22.0016 3.73762 21.6326 3.98597C21.2636 4.23433 20.9719 4.58158 20.7911 4.98796L13.6719 21.0013L47.7933 20.7976H47.8713L81.9975 20.5938L74.6882 4.66717Z" fill="#2F4859"/>
<path d="M82.7666 48.793C80.3743 48.8069 78.4461 50.7573 78.46 53.1496C78.4739 55.5419 80.4243 57.47 82.8166 57.4561C85.2089 57.4423 87.137 55.4919 87.1231 53.0996V53.0974C87.108 50.7061 85.1579 48.7792 82.7666 48.793ZM13.2117 49.2086C10.8194 49.223 8.89173 51.1741 8.90633 53.5664C8.9207 55.9587 10.8718 57.8863 13.2641 57.8717C15.6564 57.8574 17.5838 55.9063 17.5694 53.5142C17.5548 51.1219 15.604 49.1943 13.2117 49.2086Z" fill="#EBF0F3"/>
<path d="M31.5588 39.0679H63.1498V43.0112H31.5588V39.0679Z" fill="#3A556A"/>
<path d="M88.845 32.8673C88.8182 32.6297 88.7409 32.4006 88.6185 32.1952C88.496 31.9899 88.3312 31.813 88.135 31.6764C87.9387 31.5398 87.7156 31.4466 87.4805 31.4031C87.2454 31.3596 87.0037 31.3667 86.7716 31.424L72.3249 34.9563C72.1101 35.009 71.9078 35.1037 71.7296 35.2347C71.5514 35.3657 71.4008 35.5306 71.2864 35.72L68.4244 40.4567C68.2706 40.7114 68.1872 41.0024 68.1828 41.2999C68.1784 41.5974 68.2531 41.8908 68.3994 42.1499C68.5456 42.4091 68.7581 42.6247 69.015 42.7748C69.272 42.9248 69.5642 43.0039 69.8617 43.0039H83.9769C84.307 43.0062 84.6305 42.912 84.9077 42.7326C88.2374 40.5275 89.2795 37.0924 88.845 32.8673Z" fill="#E1E6E9"/>
<path d="M81.9982 34.2077C80.2515 34.2791 78.8934 35.753 78.965 37.4997C79.0364 39.2463 80.5103 40.6044 82.257 40.5329C84.0034 40.4615 85.3615 38.988 85.2904 37.2414C85.2183 35.495 83.7448 34.1369 81.9982 34.2077ZM75.2922 37.2285C73.9638 37.2818 72.93 38.4022 72.9834 39.7306C73.0368 41.0591 74.1572 42.0928 75.4856 42.0394C76.814 41.986 77.8478 40.8656 77.7944 39.5372V39.5353C77.74 38.2076 76.6201 37.1751 75.2922 37.2285Z" fill="#BDBEC1"/>
<path d="M6.70699 32.8673C6.73387 32.6297 6.81111 32.4006 6.93356 32.1952C7.05601 31.9899 7.22085 31.813 7.41708 31.6764C7.61331 31.5398 7.83642 31.4466 8.07151 31.4031C8.30661 31.3596 8.54829 31.3667 8.78042 31.424L23.2271 34.9563C23.4419 35.009 23.6442 35.1037 23.8224 35.2347C24.0006 35.3657 24.1512 35.5306 24.2656 35.72L27.1276 40.4567C27.2815 40.7114 27.3648 41.0024 27.3692 41.2999C27.3736 41.5974 27.2989 41.8908 27.1527 42.1499C27.0064 42.4091 26.794 42.6247 26.537 42.7748C26.2801 42.9248 25.9878 43.0039 25.6903 43.0039H11.5751C11.2451 43.0062 10.9215 42.912 10.6444 42.7326C7.31435 40.5275 6.27249 37.0924 6.70699 32.8673Z" fill="#E1E6E9"/>
<path d="M13.5537 34.2077C15.3003 34.2791 16.6584 35.753 16.5868 37.4997C16.5155 39.2463 15.0415 40.6044 13.2949 40.5329C11.5485 40.4615 10.1904 38.988 10.2615 37.2414C10.3335 35.495 11.807 34.1369 13.5537 34.2077ZM20.2597 37.2285C21.5881 37.2818 22.6218 38.4022 22.5684 39.7306C22.515 41.0591 21.3947 42.0928 20.0662 42.0394C18.7378 41.986 17.7041 40.8656 17.7575 39.5372V39.5353C17.8118 38.2076 18.9317 37.1751 20.2597 37.2285Z" fill="#BDBEC1"/>
</svg>
