<svg width="156" height="69" viewBox="0 0 156 69" fill="none" xmlns="http://www.w3.org/2000/svg">
<g clip-path="url(#clip0_95_3567)">
<path d="M34.2681 62.637C34.4007 63.7638 33.4065 64.8244 32.2797 64.7581C31.2854 64.7581 30.3575 63.8964 30.4238 62.9022C30.4238 61.9079 31.1529 60.98 32.0808 60.8474C33.2076 60.5823 34.3344 61.5102 34.2681 62.637Z" fill="#F2C7AC"/>
<path d="M46.0001 45.4036C46.928 46.7955 47.0606 48.5188 47.0606 50.1759C47.0606 52.4958 46.0663 54.7494 44.807 56.6716C43.9453 58.1298 42.7522 59.5217 42.6197 61.2451C42.5534 62.0405 42.8185 62.8358 43.415 63.3661C41.294 64.4929 38.9741 65.4209 36.6542 66.0837C35.8588 66.2825 35.0635 66.4814 34.2681 66.5477C35.0635 66.0174 35.7926 65.3546 36.1903 64.4266C36.7205 63.2998 36.6542 61.9079 36.0577 60.7811C39.5044 57.9972 42.5534 54.6168 44.4093 50.6399C45.2047 49.0491 45.6024 47.2595 45.9338 45.5361H46.0001V45.4036Z" fill="#F2C7AC"/>
<path d="M53.8878 32.8099C56.274 36.7206 57.2682 41.4266 57.0031 46.0001C56.8042 48.32 56.3403 50.7062 55.4123 52.8272C54.4844 54.9483 53.1587 56.8704 51.5679 58.5275C50.3086 59.7869 48.9829 60.9137 47.3921 61.7091C46.663 62.0405 45.8677 62.3056 45.006 62.173C44.4757 61.9742 44.4757 61.3114 44.6083 60.8474C45.0723 59.4555 46.1328 58.3287 46.8619 57.0693C48.5189 54.4843 49.2481 51.2364 48.9166 48.1874C48.7178 46.5304 48.1213 44.9396 47.3921 43.4814C46.663 42.0895 45.47 41.0952 44.2106 40.2998C44.0117 40.1673 44.2106 39.9684 44.3432 39.8359C45.6688 38.3777 46.9282 36.7869 47.7898 35.0635C48.9166 32.8099 49.6457 30.4238 49.8446 27.905C49.9772 27.9713 50.1097 28.1039 50.2423 28.1702C51.7005 29.5621 52.8936 31.0866 53.9541 32.8099H53.8878Z" fill="#F2C7AC"/>
<path d="M40.7638 37.052C40.9627 37.9799 40.7638 38.9741 40.4324 39.8358C39.7696 41.4929 38.1125 42.686 36.3892 43.0174C35.3949 43.1499 34.3344 43.0174 33.4065 42.6197C31.882 41.9569 30.8215 40.4986 30.5563 38.9079C30.4238 37.8473 30.49 36.6543 31.0203 35.66C31.7494 34.1355 33.2739 33.0087 34.931 32.7436C36.1903 32.5448 37.4497 32.8099 38.5102 33.539C39.7033 34.3344 40.565 35.5937 40.7638 36.9857V37.052Z" fill="#F2C7AC"/>
<path d="M44.0117 43.8127C44.078 44.9395 43.8128 46 43.5477 47.1268C42.4872 50.9712 40.0347 54.3516 37.1183 57.0692C36.3229 57.7983 35.5275 58.5937 34.5996 59.1902C34.1356 59.0577 33.7379 58.8588 33.2739 58.7263C32.1471 58.5274 30.954 58.7263 30.0261 59.3228C28.5679 60.2508 27.7725 62.173 28.2365 63.83C28.5016 64.8905 29.2307 65.7522 30.1587 66.2825C30.4901 66.4813 30.8878 66.6139 31.2855 66.8127C28.369 66.9453 25.3863 66.6802 22.5362 65.8848C21.5419 65.6196 20.614 65.2882 19.686 64.9568C20.2826 64.6917 20.8791 64.6254 21.4757 64.4265C23.3979 63.8963 25.1875 62.7032 26.4468 61.1787C27.1759 60.2508 27.7062 59.124 27.7062 57.9309C27.8388 56.4064 27.4411 54.7493 26.3806 53.5562C25.784 52.8271 24.9223 52.2969 23.9944 52.0317C24.127 51.5015 24.4584 51.0375 24.7898 50.5735C26.248 48.5188 28.369 46.9943 30.6889 46.1326C32.0146 45.6686 33.3402 45.2709 34.7321 45.3372C35.9252 45.2709 37.1183 45.1384 38.1788 44.6744C39.3719 44.1441 40.4987 43.415 41.2941 42.3545C41.493 42.0894 41.6255 41.8242 41.8244 41.6254C42.0895 41.5591 42.2883 41.758 42.5535 41.8242C43.2163 42.2882 43.8128 42.951 43.9454 43.8127H44.0117ZM37.7811 52.9597C38.0463 52.4294 37.98 51.7003 37.9137 51.1038C37.8474 50.5072 37.1183 50.3747 36.5881 50.3084C36.1904 50.3084 35.8589 50.3084 35.4613 50.3084C35.4613 49.6456 35.4613 48.9828 35.3287 48.3199C34.9973 47.5245 34.0693 47.6571 33.3402 47.6571C32.8762 47.6571 32.4785 47.9885 32.4123 48.4525C32.2797 49.049 32.4123 49.7119 32.346 50.3747C31.7494 50.3747 31.1529 50.3747 30.5564 50.441C30.0261 50.5735 29.8935 51.1701 29.8935 51.634C29.8935 52.1643 29.8935 52.8271 30.3575 53.1585C30.954 53.49 31.6832 53.2911 32.346 53.3574C32.346 53.9539 32.346 54.5505 32.4785 55.147C32.6111 55.611 33.0088 55.8761 33.4728 55.8761C34.0693 55.8761 34.8647 56.0087 35.2624 55.4121C35.5275 54.7493 35.395 54.0865 35.4613 53.4237C36.1904 53.4237 37.1846 53.6888 37.7811 52.9597Z" fill="#F2C7AC"/>
<path d="M49.1816 5.50149C49.3804 6.82714 49.1816 8.28535 48.3199 9.41215C47.7896 10.2075 46.9943 10.7378 46.3314 11.4006C45.9337 11.732 45.9337 12.3949 46.1326 12.8588C46.7954 14.5159 47.1931 16.2392 47.4582 17.9626C47.7896 19.9511 48.0548 21.9395 47.9885 23.928C47.9885 24.856 47.8559 25.7176 47.7896 26.5793C47.6571 28.0375 47.5245 29.562 47.1268 31.0202C46.7954 32.0807 46.464 33.2075 45.9337 34.2018C45.4035 35.2623 44.7407 36.1903 44.0116 37.1182C43.6801 37.5159 43.3487 37.9799 42.8848 38.3113C43.2162 34.6658 40.1672 31.0865 36.5216 30.7551C34.9309 30.6225 33.2738 30.9539 31.9482 31.8156C30.2248 32.8761 28.9654 34.732 28.5677 36.7868C28.2363 38.5101 28.5677 40.366 29.4957 41.8905C29.9597 42.6197 30.5562 43.2825 31.1528 43.8127C28.7003 44.7407 26.3804 46 24.5245 47.856C23.3977 48.9828 22.6023 50.3084 21.8069 51.6341C21.343 51.6341 20.879 51.5678 20.4813 51.5015C18.7579 51.2364 16.9683 50.905 15.3113 50.3084C14.317 49.977 13.3891 49.3142 12.5937 48.6514C12.0634 48.2537 11.2017 48.6514 11.1355 49.2479C11.0029 49.7119 11.268 50.1758 11.5332 50.441C12.3948 51.3689 13.6542 51.8329 14.8473 52.2969C16.6369 52.8934 18.4928 53.2248 20.415 53.49C21.5418 53.6225 22.6023 53.6888 23.7291 53.9539C24.3257 54.0865 24.9885 54.4179 25.3199 54.9482C26.2479 56.2075 26.1153 57.9972 25.3862 59.3228C24.4582 61.1787 22.4698 62.3718 20.4813 62.7695C18.7579 63.1009 16.9683 63.0346 15.245 62.6369C12.66 62.0404 10.2738 60.6485 8.35161 58.8588C5.03748 55.9424 3.11529 51.7003 2.45247 47.392C1.5908 41.4928 3.24786 35.2623 6.95967 30.6225C7.82135 29.6283 8.68302 28.5678 9.74354 27.7724C10.2738 29.562 10.9366 31.2854 11.9309 32.8761C12.0634 33.1413 12.2623 33.3401 12.3948 33.6715C12.1297 34.0692 11.7983 34.4006 11.5332 34.8646C10.7378 36.0577 10.4726 37.5822 10.7378 38.9741C10.9366 41.0289 11.732 43.0173 12.7262 44.8732C12.9914 45.4035 13.4554 45.8675 13.3891 46.464C13.3891 47.4583 14.2507 48.3862 15.245 48.3199C16.6369 48.3199 17.83 46.8617 17.2997 45.5361C16.9683 44.6081 15.9078 44.343 15.0461 44.4756C14.317 43.2162 13.6542 41.8905 13.1902 40.4323C12.7262 39.173 12.5274 37.7148 13.0577 36.3891C13.9193 34.2018 16.7032 33.1413 18.8242 34.0692C19.8847 34.4669 20.6801 35.3286 21.2104 36.3228C21.8732 37.3833 22.3372 38.5764 22.7349 39.7695C22.8675 40.1672 23 40.5649 23.0663 40.9626C22.9337 41.4266 22.6023 41.8243 22.6023 42.3545C22.4698 43.1499 22.9337 44.0116 23.7291 44.2767C24.8559 44.6081 26.049 43.7465 26.1816 42.6197C26.1816 42.0231 25.9164 41.4266 25.5188 41.0289C24.9885 40.4986 24.7896 39.7695 24.5908 39.1067C23.928 36.9856 23.0663 34.6658 21.2767 33.2075C19.5533 31.683 16.9683 31.4179 14.8473 32.2133C14.6484 32.2133 14.317 32.4784 14.1845 32.2133C12.9251 30.6888 12.196 28.7666 11.8646 26.7782C11.5994 25.2537 11.4669 23.7292 11.5332 22.2047C11.6657 19.8185 11.9971 17.366 12.5937 15.0462C12.7925 14.2508 12.9914 13.5217 13.3228 12.7926C13.5216 12.3286 13.5216 11.732 13.0577 11.3343C12.3286 10.6715 11.4669 10.075 10.9366 9.2133C9.67725 7.3574 9.94238 4.50725 11.732 3.11532C13.5216 1.65711 16.3718 1.85596 18.0288 3.51302C18.4928 3.91071 18.7579 4.57354 19.4208 4.77238C19.951 4.90495 20.4813 4.57354 20.9453 4.30841C22.2709 3.51302 23.7291 3.04904 25.1873 2.71763C26.8444 2.38622 28.5677 2.18737 30.2248 2.18737C33.3401 2.31993 36.5879 2.91647 39.2392 4.57354C39.7032 4.90495 40.366 4.97123 40.7637 4.57354C41.0951 4.24212 41.3603 3.84443 41.6917 3.51302C43.1499 2.12109 45.4698 1.72339 47.1931 2.71763C48.3199 3.31417 49.1153 4.37469 49.3804 5.63405L49.1816 5.50149ZM37.1182 16.7695C37.8473 16.3718 38.1787 15.4439 37.9799 14.6485C37.8473 13.7205 36.8531 12.8588 35.8588 13.1903C34.6657 13.5879 34.0692 15.3113 34.9309 16.3055C35.3948 16.9683 36.3891 17.1672 37.1182 16.7695ZM35.3948 24.2594C35.7262 23.7954 35.3948 23 34.7983 23C34.1355 22.8675 33.7378 23.3977 33.2075 23.7292C32.3458 24.2594 31.2853 24.5908 30.2911 24.7234C30.2911 23.7954 30.2911 22.8675 30.2911 22.0058C31.4842 21.807 32.611 21.0779 33.1412 19.9511C33.4726 19.222 33.4064 18.294 32.7435 17.7637C31.6167 16.9021 30.0922 16.9021 28.7003 16.9683C27.7724 17.1009 26.7118 17.2335 26.049 18.0289C25.6513 18.4928 25.6513 19.222 25.9164 19.7522C26.3804 20.8127 27.4409 21.5418 28.5677 21.8732C28.7003 21.8732 28.8992 22.0058 28.8992 22.1384C28.8992 22.9338 28.8992 23.7954 28.8992 24.5908C28.4352 24.5908 27.9712 24.5908 27.5072 24.4583C26.6456 24.2594 25.8502 23.7954 25.2536 23.1989C24.9222 22.8675 24.2594 22.8675 23.928 23.1989C23.5966 23.5303 23.6628 24.1269 23.928 24.4583C25.0548 25.7176 26.6456 26.4467 28.3026 26.6456C30.1585 26.8444 32.0807 26.6456 33.6715 25.7176C34.3343 25.3199 35.0634 24.856 35.5274 24.1931L35.3948 24.2594ZM24.2594 15.8415C24.5908 15.1124 24.4582 14.2508 23.928 13.6542C23.5966 13.2565 23 13.0577 22.4698 13.1903C21.6081 13.3891 20.9453 14.1182 20.879 15.0462C20.8127 15.7753 21.2104 16.5044 21.8732 16.8358C22.7349 17.1672 23.7954 16.7032 24.1931 15.9078L24.2594 15.8415Z" fill="#F2C7AC"/>
<path d="M59.124 42.3545C59.2566 43.4813 59.124 44.6744 59.1903 45.8012C59.0578 48.5188 58.4612 51.2364 57.3344 53.6888C55.6111 57.5332 52.6946 60.8473 49.1154 63.0346C48.1874 63.5649 47.1932 63.8963 46.2652 64.3603C43.9454 65.5534 41.5592 66.6802 39.0405 67.5418C34.5995 69.0663 29.6946 69.3977 25.0549 68.6023C20.8128 67.8732 16.7696 66.1499 12.8589 64.2277C9.01451 62.6369 5.56783 59.8531 3.31423 56.2738C0.795494 52.1643 -0.331307 47.1931 0.0663878 42.3545C0.530365 35.5937 3.97705 29.1643 9.0808 24.7234C9.0808 23.5966 9.01451 22.4035 9.14708 21.2767C9.27964 19.8185 9.47849 18.294 9.74362 16.8358C10.0088 15.3113 10.2739 13.8531 10.9367 12.4611C9.87619 11.6657 8.88195 10.6715 8.28541 9.47842C7.42374 7.6888 7.49002 5.4352 8.28541 3.64557C9.01451 2.18736 10.2739 1.06056 11.7321 0.530296C13.6543 -0.19881 15.9742 -0.0662455 17.7638 1.06056C18.3603 1.45825 18.9569 1.92223 19.4871 2.51877C20.9454 1.6571 22.6687 1.06056 24.3258 0.662861C29.3632 -0.530222 34.9309 3.69549e-05 39.5044 2.51877C40.8301 0.927991 42.9511 3.69623e-05 45.0059 0.132602C46.7292 0.132602 48.4526 0.994273 49.5794 2.31992C51.7667 4.57352 51.7667 8.4179 49.7782 10.8041C49.3142 11.4669 48.6514 11.9972 48.0549 12.5274C48.8503 14.317 49.1154 16.1729 49.3805 18.0951C49.7119 20.3487 49.9771 22.6023 49.9771 24.8559C53.4237 27.9049 56.1413 31.7493 57.6658 36.124C58.3286 38.1787 58.7926 40.2997 58.9915 42.4871L59.124 42.3545ZM57.003 45.9338C57.2681 41.3603 56.2739 36.7205 53.8877 32.7436C52.8272 31.0202 51.6341 29.4957 50.1759 28.1038C50.0433 27.9712 49.9108 27.9049 49.7782 27.8387C49.5794 30.3574 48.8503 32.7436 47.7235 34.9972C46.8618 36.7868 45.6687 38.3776 44.2768 39.7695C44.2105 39.9021 43.9454 40.1009 44.1442 40.2335C45.4036 41.0951 46.5967 42.0894 47.3258 43.415C48.0549 44.8732 48.6514 46.464 48.8503 48.1211C49.1817 51.1701 48.4526 54.4179 46.7955 57.0029C46.0664 58.2623 45.0059 59.3228 44.5419 60.781C44.4093 61.245 44.3431 61.9741 44.9396 62.1067C45.735 62.2392 46.5967 61.9741 47.3258 61.6427C48.9165 60.8473 50.3085 59.7205 51.5015 58.4611C53.0923 56.8041 54.4843 54.8819 55.3459 52.7608C56.3402 50.6398 56.7379 48.2536 56.9367 45.9338H57.003ZM48.32 9.41214C49.1817 8.35162 49.3805 6.82713 49.1817 5.50148C48.9165 4.30839 48.1211 3.18159 46.9943 2.58505C45.271 1.6571 42.8848 2.05479 41.4929 3.38044C41.1615 3.71185 40.8301 4.04326 40.5649 4.44096C40.1673 4.90494 39.4381 4.83865 39.0405 4.44096C36.3229 2.71762 33.1413 2.18736 30.026 2.05479C28.3027 2.05479 26.6456 2.25364 24.9886 2.58505C23.5304 2.91646 22.0722 3.38044 20.7465 4.17583C20.2825 4.44096 19.8186 4.77237 19.222 4.63981C18.5592 4.44096 18.3603 3.77813 17.8301 3.38044C16.173 1.78966 13.3229 1.59082 11.5332 2.98275C9.74362 4.37468 9.41221 7.22482 10.7379 9.08073C11.3344 9.9424 12.1298 10.5389 12.8589 11.2018C13.2566 11.5332 13.3229 12.196 13.124 12.66C12.7926 13.3891 12.5938 14.1845 12.3949 14.9136C11.7984 17.2335 11.467 19.6859 11.3344 22.0721C11.2681 23.5966 11.3344 25.1211 11.6658 26.6456C11.9972 28.5678 12.7263 30.49 13.9857 32.0807C14.1183 32.3459 14.4497 32.0807 14.6485 32.0807C16.7696 31.2853 19.3546 31.5505 21.0779 33.075C22.8675 34.5995 23.7292 36.8531 24.392 38.9741C24.6572 39.6369 24.7897 40.366 25.32 40.8963C25.7177 41.294 26.0491 41.8905 25.9828 42.4871C25.9165 43.6139 24.6572 44.5418 23.5304 44.1441C22.735 43.879 22.3373 43.0173 22.4036 42.2219C22.4036 41.6917 22.735 41.294 22.8675 40.83C22.8675 40.4323 22.6687 40.0346 22.5361 39.6369C22.1384 38.4438 21.6745 37.2508 21.0116 36.1902C20.4814 35.2623 19.686 34.4006 18.6255 33.9366C16.5044 33.075 13.7206 34.1355 12.8589 36.2565C12.3286 37.5159 12.5275 38.9741 12.9915 40.2998C13.4554 41.6917 14.1183 43.0173 14.8474 44.343C15.709 44.2767 16.7696 44.5418 17.101 45.4035C17.6312 46.7291 16.4381 48.2536 15.0462 48.1874C14.052 48.1874 13.124 47.3257 13.1903 46.3315C13.1903 45.7349 12.7926 45.2709 12.5275 44.7407C11.5332 42.951 10.7379 40.9626 10.539 38.8415C10.3402 37.4496 10.539 35.9251 11.3344 34.732C11.5995 34.3343 11.9309 33.9366 12.1961 33.5389C12.0635 33.2738 11.9309 33.0087 11.7321 32.7436C10.7379 31.1528 10.075 29.4294 9.54477 27.6398C8.48426 28.4352 7.62258 29.4957 6.76091 30.49C3.0491 35.1297 1.39204 41.3603 2.25371 47.2594C2.85025 51.5678 4.83872 55.8098 8.15284 58.7263C10.1413 60.5159 12.4612 61.9078 15.0462 62.5044C16.7696 62.9021 18.5592 62.9683 20.2825 62.6369C22.271 62.173 24.1932 61.0462 25.1874 59.1902C25.9165 57.8646 26.0491 56.075 25.1211 54.8156C24.7897 54.2853 24.1932 53.9539 23.5304 53.8214C22.4698 53.5562 21.343 53.49 20.2162 53.3574C18.3603 53.0923 16.5044 52.7608 14.6485 52.1643C13.4554 51.7666 12.2624 51.2364 11.3344 50.3084C11.003 49.977 10.8041 49.513 10.9367 49.1153C11.0693 48.5188 11.9309 48.1211 12.3949 48.5188C13.2566 49.1816 14.1183 49.7781 15.1125 50.1758C16.7696 50.7724 18.4929 51.1038 20.2825 51.3689C20.7465 51.3689 21.2105 51.5015 21.6082 51.5015C22.4036 50.1758 23.2652 48.8502 24.3258 47.7234C26.1154 45.8675 28.5015 44.6081 30.954 43.6802C30.2912 43.1499 29.6946 42.4871 29.2969 41.758C28.369 40.2335 28.0376 38.3776 28.369 36.6542C28.7667 34.5995 30.026 32.8098 31.7494 31.683C33.1413 30.8214 34.7321 30.49 36.3229 30.6225C39.9684 30.9539 43.0174 34.4669 42.686 38.1787C43.15 37.8473 43.4151 37.4496 43.8128 36.9856C44.5419 36.0577 45.2047 35.1297 45.735 34.0692C46.2652 33.075 46.5967 32.0144 46.9281 30.8876C47.392 29.4294 47.4583 27.9049 47.5909 26.4467C47.6572 25.5851 47.7897 24.6571 47.7897 23.7954C47.7897 21.807 47.5909 19.8185 47.2595 17.83C46.9281 16.1067 46.5967 14.317 45.9338 12.7263C45.735 12.2623 45.735 11.6657 46.1327 11.268C46.7955 10.6052 47.5909 10.075 48.1211 9.27958L48.32 9.41214ZM46.9943 50.1758C46.9943 48.5188 46.9281 46.7954 45.9338 45.4035H45.8675C45.6024 47.1931 45.1384 48.9827 44.343 50.5735C42.4209 54.6168 39.3719 57.9309 35.9915 60.7147C36.588 61.8415 36.6543 63.2335 36.124 64.3603C35.7263 65.2882 34.9972 65.951 34.2018 66.4813C34.9972 66.4813 35.7926 66.2162 36.588 66.0173C38.9742 65.4208 41.2278 64.4928 43.3488 63.2998C42.7523 62.7695 42.4871 61.9741 42.5534 61.1787C42.686 59.3891 43.8791 57.9972 44.7407 56.6052C46.0001 54.683 46.9281 52.4294 46.9943 50.1095V50.1758ZM43.5477 47.1268C43.8128 46.0663 44.0779 44.9395 44.0116 43.8127C43.8791 42.951 43.2825 42.2882 42.6197 41.8242C42.4209 41.6917 42.1557 41.4928 41.8906 41.6254C41.6918 41.8242 41.4929 42.0894 41.3603 42.3545C40.5649 43.415 39.4381 44.2104 38.2451 44.6744C37.1845 45.1384 35.9915 45.2709 34.7984 45.3372C33.4064 45.3372 32.0808 45.7349 30.7552 46.1326C28.4353 46.9943 26.3142 48.5188 24.856 50.5735C24.5246 51.0375 24.1932 51.4352 24.0606 52.0317C24.9886 52.2969 25.784 52.8271 26.4468 53.5562C27.5073 54.7493 27.905 56.3401 27.7724 57.9309C27.7724 59.124 27.2422 60.2508 26.5131 61.1787C25.2537 62.7032 23.5304 63.8963 21.5419 64.4266C20.9454 64.6254 20.2825 64.6917 19.7523 64.9568C20.6802 65.2882 21.6745 65.6196 22.6024 65.8848C25.4526 66.6802 28.4353 66.9453 31.3517 66.8127C31.0203 66.6139 30.5563 66.5476 30.2249 66.2825C29.2969 65.7522 28.5678 64.8242 28.3027 63.83C27.8387 62.173 28.6341 60.2508 30.0923 59.3228C31.0203 58.66 32.2134 58.4611 33.3402 58.7263C33.8041 58.7925 34.2018 59.0577 34.6658 59.1902C35.5938 58.5937 36.3229 57.7983 37.1845 57.0692C40.101 54.3516 42.5534 51.0375 43.6139 47.1268H43.5477ZM40.4324 39.9021C40.7638 39.0404 41.0289 38.0461 40.7638 37.1182C40.4987 35.7263 39.7033 34.4669 38.5102 33.6715C37.4497 32.9424 36.1903 32.6773 34.9309 32.8761C33.2739 33.1412 31.6831 34.2681 31.0203 35.7925C30.49 36.7868 30.4237 37.9136 30.5563 39.0404C30.8214 40.6312 31.882 42.0894 33.4064 42.7522C34.3344 43.2162 35.3949 43.2825 36.3892 43.1499C38.1788 42.8185 39.7696 41.6254 40.4324 39.9683V39.9021ZM32.2796 64.758C33.4064 64.758 34.4007 63.7637 34.2681 62.6369C34.2681 61.5101 33.1413 60.5159 32.0808 60.8473C31.1528 61.0462 30.3575 61.9078 30.4237 62.9021C30.4237 63.8963 31.2854 64.758 32.2796 64.758Z" fill="#69417E"/>
<path d="M38.0463 14.7147C38.2452 15.5101 37.9138 16.438 37.1847 16.8357C36.4556 17.1672 35.5276 17.0346 34.9973 16.3718C34.202 15.3775 34.7322 13.6542 35.9253 13.2565C36.9195 12.9251 37.8475 13.7867 38.0463 14.7147Z" fill="#69417E"/>
<path d="M37.9137 51.1039C37.98 51.7004 38.0463 52.3633 37.7811 52.9598C37.2509 53.6889 36.2566 53.3575 35.4612 53.4238C35.395 54.0866 35.4612 54.8157 35.2624 55.4123C34.931 56.0088 34.0693 55.8762 33.4728 55.8762C33.0088 55.8762 32.6111 55.6111 32.4785 55.1471C32.2797 54.5506 32.346 53.954 32.346 53.3575C31.6831 53.2912 30.954 53.4901 30.3575 53.1586C29.8272 52.8272 29.8935 52.1644 29.8935 51.6342C29.8935 51.1702 30.0261 50.5736 30.5563 50.4411C31.1529 50.3085 31.7494 50.3085 32.346 50.3748C32.346 49.712 32.346 49.1154 32.4123 48.4526C32.4785 47.9886 32.8762 47.6572 33.3402 47.6572C34.003 47.6572 34.9973 47.5246 35.3287 48.32C35.4612 48.9829 35.4612 49.6457 35.4612 50.3085C35.8589 50.3085 36.1904 50.3085 36.588 50.3085C37.1183 50.3085 37.8474 50.4411 37.9137 51.1039Z" fill="#69417E"/>
<path d="M34.7983 23.0001C35.3949 23.0001 35.7263 23.7955 35.3949 24.2595C34.9309 24.9223 34.2018 25.3863 33.5389 25.784C31.9482 26.7782 29.9597 26.9108 28.1701 26.7119C26.513 26.5131 24.9222 25.784 23.7954 24.5246C23.464 24.1932 23.464 23.5967 23.7954 23.2652C24.1268 22.8675 24.7897 22.8675 25.1211 23.2652C25.7839 23.8618 26.513 24.3258 27.3747 24.5246C27.8387 24.6572 28.3026 24.6572 28.7666 24.6572C28.7666 23.8618 28.7666 23.0001 28.7666 22.2047C28.7666 22.0059 28.6341 21.9396 28.4352 21.9396C27.3084 21.6082 26.2479 20.8791 25.7839 19.8186C25.5188 19.2883 25.5188 18.5592 25.9165 18.0952C26.5793 17.2998 27.6398 17.1673 28.5678 17.0347C29.9597 16.9684 31.4842 16.9684 32.611 17.8301C33.2738 18.2941 33.3401 19.2883 33.0087 20.0174C32.4784 21.1442 31.3516 21.8733 30.1585 22.0722C30.0923 23.0001 30.1585 23.9281 30.1585 24.7897C31.1528 24.6572 32.2133 24.3258 33.075 23.7955C33.6052 23.5304 34.0029 23.0001 34.6657 23.0664L34.7983 23.0001Z" fill="#69417E"/>
<path d="M23.9281 13.6542C24.4584 14.2507 24.5909 15.1124 24.2595 15.8415C23.8618 16.7032 22.8013 17.1009 21.9396 16.7695C21.2768 16.5043 20.8791 15.709 20.9454 14.9799C20.9454 14.1182 21.6745 13.3228 22.5362 13.1239C23.0664 13.0577 23.5967 13.1902 23.9944 13.5879L23.9281 13.6542Z" fill="#69417E"/>
<path d="M78.0807 31.1526C76.3574 31.1526 74.8992 30.8874 73.7724 30.4235C72.6456 29.9595 71.7176 29.2304 71.1211 28.435C70.5245 27.6396 70.1931 26.7779 70.1931 25.85C70.1931 25.7174 70.1931 25.5848 70.3257 25.4523C70.4582 25.3197 70.5908 25.2534 70.7234 25.2534H73.6398C73.9049 25.2534 74.0375 25.2534 74.1701 25.386C74.3026 25.4523 74.4352 25.5848 74.5015 25.7837C74.634 26.1151 74.8329 26.3802 75.098 26.6454C75.3631 26.9105 75.7608 27.1756 76.2248 27.3745C76.6888 27.5733 77.2853 27.6396 78.0144 27.6396C79.2075 27.6396 80.0692 27.4407 80.6657 27.043C81.2623 26.6454 81.5274 26.1814 81.5274 25.5186C81.5274 24.8557 81.3948 24.6569 81.0634 24.3918C80.732 24.1266 80.268 23.8615 79.6052 23.5964C78.9424 23.3312 78.0144 23.1324 76.8876 22.8673C75.562 22.6021 74.3689 22.2044 73.441 21.7405C72.513 21.2765 71.7839 20.6799 71.3199 19.9508C70.8559 19.2217 70.5908 18.2938 70.5908 17.2333C70.5908 16.1727 70.8559 15.1785 71.4525 14.3831C72.049 13.5214 72.9107 12.8586 73.9712 12.3946C75.0317 11.9307 76.3574 11.6655 77.8156 11.6655C79.2738 11.6655 80.0692 11.7981 80.9971 12.1295C81.9251 12.4609 82.7205 12.8586 83.317 13.3889C83.9136 13.9191 84.4438 14.4494 84.709 15.0459C85.0404 15.6425 85.1729 16.239 85.2392 16.7693C85.2392 16.9018 85.2392 17.0344 85.1067 17.167C84.9741 17.2995 84.8415 17.3658 84.709 17.3658H81.66C81.4611 17.3658 81.3286 17.3658 81.196 17.2333C81.0634 17.167 80.9309 17.0344 80.8646 16.8356C80.732 16.3716 80.4669 15.9739 79.9366 15.5762C79.4064 15.1785 78.7435 15.0459 77.8819 15.0459C77.0202 15.0459 76.2911 15.1785 75.7608 15.5099C75.2306 15.8413 74.9654 16.3053 74.9654 16.9681C74.9654 17.6309 75.098 17.7635 75.3631 18.0949C75.6283 18.3601 76.0922 18.6252 76.6888 18.8903C77.2853 19.0892 78.147 19.3543 79.1412 19.6194C80.732 19.9508 81.9914 20.3485 82.9856 20.8125C83.9799 21.2765 84.709 21.873 85.1729 22.5358C85.6369 23.2649 85.9021 24.1266 85.9021 25.2534C85.9021 26.3802 85.5706 27.507 84.9078 28.3687C84.245 29.2304 83.317 29.8932 82.124 30.3572C80.9309 30.8211 79.5389 31.02 78.0144 31.02L78.0807 31.1526Z" fill="white"/>
<path d="M89.6138 30.8211C89.4149 30.8211 89.2823 30.8211 89.1498 30.6223C89.0172 30.4897 88.9509 30.3572 88.9509 30.1583V12.3284C88.9509 12.1295 88.9509 11.9969 89.1498 11.8644C89.2823 11.7318 89.4149 11.6655 89.6138 11.6655H92.5302C92.729 11.6655 92.8616 11.6655 92.9942 11.8644C93.1267 11.9969 93.193 12.1295 93.193 12.3284V18.4263C93.657 17.8298 94.2535 17.3658 94.9826 17.0344C95.7117 16.703 96.5071 16.5041 97.5014 16.5041C98.4956 16.5041 99.4898 16.7693 100.352 17.2333C101.147 17.6972 101.81 18.4263 102.274 19.288C102.738 20.216 103.003 21.2765 103.003 22.6021V30.1583C103.003 30.3572 103.003 30.4897 102.804 30.6223C102.671 30.7549 102.539 30.8211 102.34 30.8211H99.4236C99.2247 30.8211 99.0921 30.8211 98.9596 30.6223C98.827 30.4897 98.7607 30.3572 98.7607 30.1583V22.801C98.7607 21.873 98.4956 21.0776 98.0316 20.5474C97.5676 20.0171 96.9048 19.752 96.0431 19.752C95.1815 19.752 94.5187 20.0171 93.9884 20.5474C93.4581 21.0776 93.193 21.8067 93.193 22.801V30.1583C93.193 30.3572 93.193 30.4897 92.9942 30.6223C92.8616 30.7549 92.729 30.8211 92.5302 30.8211H89.6138Z" fill="white"/>
<path d="M107.046 14.6483C106.847 14.6483 106.715 14.6483 106.582 14.4495C106.45 14.3169 106.383 14.1844 106.383 13.9855V11.7982C106.383 11.5994 106.383 11.4005 106.582 11.2679C106.715 11.1354 106.847 11.0691 107.046 11.0691H109.896C110.095 11.0691 110.294 11.1354 110.427 11.2679C110.559 11.4005 110.625 11.5994 110.625 11.7982V13.9855C110.625 14.1844 110.559 14.3169 110.427 14.4495C110.294 14.5821 110.095 14.6483 109.896 14.6483H107.046ZM107.179 30.8213C106.98 30.8213 106.847 30.8213 106.715 30.6224C106.582 30.4898 106.516 30.3573 106.516 30.1584V17.4322C106.516 17.2334 106.516 17.1008 106.715 16.9682C106.847 16.8357 106.98 16.7694 107.179 16.7694H109.896C110.095 16.7694 110.228 16.7694 110.36 16.9682C110.493 17.1008 110.559 17.2334 110.559 17.4322V30.1584C110.559 30.3573 110.559 30.4898 110.36 30.6224C110.228 30.755 110.095 30.8213 109.896 30.8213H107.179Z" fill="white"/>
<path d="M116.525 30.8212C116.326 30.8212 116.193 30.8212 116.061 30.6224C115.928 30.4898 115.862 30.3573 115.862 30.1584V19.9509H113.741C113.542 19.9509 113.409 19.9509 113.277 19.7521C113.144 19.6195 113.078 19.487 113.078 19.2881V17.4322C113.078 17.2333 113.078 17.1008 113.277 16.9682C113.409 16.8357 113.542 16.7694 113.741 16.7694H115.862V15.7751C115.862 14.6483 116.061 13.6541 116.525 12.925C116.989 12.1959 117.585 11.6656 118.447 11.3342C119.242 11.0028 120.303 10.804 121.496 10.804H123.484C123.683 10.804 123.816 10.804 123.948 11.0028C124.081 11.1354 124.147 11.2679 124.147 11.4668V13.3227C124.147 13.5215 124.147 13.6541 123.948 13.7867C123.816 13.9192 123.683 13.9855 123.484 13.9855H121.695C121.032 13.9855 120.568 14.1181 120.303 14.4495C120.038 14.7809 119.905 15.2449 119.905 15.9077V16.7694H123.219C123.418 16.7694 123.551 16.7694 123.683 16.9682C123.816 17.1008 123.882 17.2333 123.882 17.4322V19.2881C123.882 19.487 123.882 19.6195 123.683 19.7521C123.551 19.8846 123.418 19.9509 123.219 19.9509H119.905V30.1584C119.905 30.3573 119.905 30.4898 119.706 30.6224C119.574 30.755 119.441 30.8212 119.242 30.8212H116.591H116.525Z" fill="white"/>
<path d="M133.758 30.8211C132.631 30.8211 131.703 30.6223 130.908 30.2909C130.112 29.8932 129.516 29.3629 129.118 28.5675C128.721 27.7722 128.522 26.8442 128.522 25.6511V19.9508H126.401C126.202 19.9508 126.069 19.9508 125.937 19.752C125.804 19.6194 125.738 19.4869 125.738 19.288V17.4321C125.738 17.2333 125.738 17.1007 125.937 16.9681C126.069 16.8356 126.202 16.7693 126.401 16.7693H128.522V12.3284C128.522 12.1295 128.588 11.9969 128.721 11.8644C128.853 11.7318 128.986 11.6655 129.184 11.6655H131.836C132.035 11.6655 132.167 11.6655 132.3 11.8644C132.432 11.9969 132.499 12.1295 132.499 12.3284V16.7693H135.879C136.078 16.7693 136.21 16.7693 136.343 16.9681C136.476 17.1007 136.542 17.2333 136.542 17.4321V19.288C136.542 19.4869 136.542 19.6194 136.343 19.752C136.21 19.8845 136.078 19.9508 135.879 19.9508H132.499V25.3197C132.499 25.9825 132.631 26.5128 132.896 26.9105C133.161 27.3082 133.559 27.507 134.156 27.507H136.144C136.343 27.507 136.476 27.507 136.608 27.7059C136.741 27.8384 136.807 27.971 136.807 28.1699V30.1583C136.807 30.3572 136.807 30.4897 136.608 30.6223C136.476 30.7549 136.343 30.8211 136.144 30.8211H133.824H133.758Z" fill="white"/>
<path d="M71.9826 57.5992C71.7838 57.5992 71.6512 57.5992 71.5187 57.4004C71.3861 57.2678 71.3198 57.1353 71.3198 56.9364V39.3716C71.3198 39.1727 71.3198 39.0402 71.5187 38.9076C71.7175 38.775 71.7838 38.7087 71.9826 38.7087H80.0028C81.5273 38.7087 82.7204 38.9076 83.6484 39.3716C84.5763 39.8355 85.3054 40.4321 85.7694 41.2275C86.2334 42.0229 86.4322 42.9508 86.4322 44.0113C86.4322 45.0719 86.2996 45.2707 86.1008 45.801C85.8357 46.3312 85.5705 46.7289 85.2391 47.0603C84.9077 47.3917 84.5763 47.6569 84.2449 47.7894C84.974 48.1208 85.5705 48.6511 86.1008 49.3802C86.6311 50.1093 86.8962 51.0373 86.8962 52.0315C86.8962 53.0257 86.6311 54.1525 86.1671 55.0142C85.6368 55.8759 84.9077 56.5387 83.9135 57.0027C82.9192 57.4667 81.7262 57.7318 80.268 57.7318H71.9826V57.5992ZM75.5619 46.3312H79.4726C80.3342 46.3312 80.9308 46.1324 81.3948 45.6684C81.7924 45.2707 82.0576 44.6742 82.0576 44.0113C82.0576 43.3485 81.8587 42.8182 81.3948 42.4206C80.9971 42.0229 80.3342 41.824 79.4726 41.824H75.5619V46.3312ZM75.5619 54.484H79.6714C80.5331 54.484 81.1959 54.2188 81.6599 53.7548C82.1239 53.2909 82.3227 52.6943 82.3227 51.9652C82.3227 51.2361 82.1239 50.6396 81.6599 50.1756C81.1959 49.7116 80.5331 49.4465 79.6714 49.4465H75.5619V54.4177V54.484Z" fill="white"/>
<path d="M95.1815 57.8644C94.121 57.8644 93.193 57.5992 92.3976 57.1353C91.6022 56.6713 91.0057 55.9422 90.5417 55.0805C90.0778 54.1526 89.8789 53.092 89.8789 51.7664V44.2102C89.8789 44.0113 89.8789 43.8788 90.0777 43.7462C90.2103 43.6136 90.3429 43.5474 90.5417 43.5474H93.3919C93.5907 43.5474 93.7233 43.5474 93.8559 43.7462C93.9884 43.8788 94.0547 44.0113 94.0547 44.2102V51.5675C94.0547 53.556 94.9164 54.6165 96.706 54.6165C98.4956 54.6165 98.2305 54.3514 98.6945 53.8211C99.1584 53.2909 99.4236 52.5618 99.4236 51.5675V44.2102C99.4236 44.0113 99.4236 43.8788 99.6224 43.7462C99.755 43.6136 99.8875 43.5474 100.086 43.5474H102.937C103.135 43.5474 103.268 43.5474 103.401 43.7462C103.533 43.8788 103.599 44.0113 103.599 44.2102V56.9364C103.599 57.1353 103.599 57.2678 103.401 57.4004C103.268 57.533 103.135 57.5992 102.937 57.5992H100.285C100.086 57.5992 99.9538 57.5992 99.8213 57.4004C99.6887 57.2678 99.6224 57.1353 99.6224 56.9364V55.8759C99.1584 56.5387 98.5619 57.0027 97.8328 57.3341C97.1037 57.6655 96.1757 57.8644 95.1152 57.8644H95.1815Z" fill="white"/>
<path d="M112.614 57.8645C111.686 57.8645 110.89 57.7319 110.228 57.4005C109.498 57.1354 108.902 56.6714 108.438 56.0748C107.974 55.4783 107.576 54.8155 107.311 54.0201C107.046 53.2247 106.913 52.363 106.847 51.4351C106.847 51.1037 106.847 50.7723 106.847 50.5071C106.847 50.242 106.847 49.9106 106.847 49.5792C106.847 48.6512 107.046 47.7895 107.311 46.9942C107.576 46.1988 107.974 45.5359 108.438 45.0057C108.902 44.4091 109.498 44.0114 110.228 43.68C110.957 43.3486 111.752 43.2161 112.614 43.2161C113.475 43.2161 114.337 43.3486 115 43.68C115.663 44.0114 116.193 44.4091 116.657 44.9394V39.0403C116.657 38.8414 116.657 38.7089 116.856 38.5763C116.988 38.4437 117.121 38.3774 117.32 38.3774H120.104C120.302 38.3774 120.435 38.3774 120.568 38.5763C120.7 38.7089 120.766 38.8414 120.766 39.0403V56.8702C120.766 57.0691 120.766 57.2017 120.568 57.3342C120.435 57.4668 120.302 57.5331 120.104 57.5331H117.519C117.32 57.5331 117.187 57.5331 117.055 57.3342C116.922 57.2017 116.856 57.0691 116.856 56.8702V55.9423C116.392 56.4725 115.862 56.9365 115.132 57.2679C114.47 57.5993 113.608 57.7982 112.547 57.7982L112.614 57.8645ZM113.873 54.6166C114.536 54.6166 115.066 54.4841 115.464 54.1527C115.862 53.8212 116.193 53.4898 116.326 52.9596C116.524 52.4956 116.591 51.9653 116.657 51.4351C116.657 51.1037 116.657 50.7723 116.657 50.4408C116.657 50.1094 116.657 49.778 116.657 49.4466C116.657 48.9163 116.524 48.4524 116.326 48.0547C116.127 47.5907 115.795 47.2593 115.398 46.9279C115 46.6627 114.47 46.4639 113.807 46.4639C113.144 46.4639 112.614 46.5965 112.216 46.9279C111.818 47.193 111.553 47.5907 111.354 48.121C111.156 48.5849 111.089 49.1152 111.023 49.7117C111.023 50.242 111.023 50.8385 111.023 51.3688C111.023 51.9653 111.156 52.4956 111.354 52.9596C111.553 53.4236 111.818 53.8212 112.216 54.1527C112.614 54.4178 113.144 54.6166 113.807 54.6166H113.873Z" fill="white"/>
<path d="M129.781 57.8645C128.853 57.8645 128.058 57.7319 127.395 57.4005C126.666 57.1354 126.069 56.6714 125.605 56.0748C125.141 55.4783 124.744 54.8155 124.478 54.0201C124.213 53.2247 124.081 52.363 124.014 51.4351C124.014 51.1037 124.014 50.7723 124.014 50.5071C124.014 50.242 124.014 49.9106 124.014 49.5792C124.014 48.6512 124.213 47.7895 124.478 46.9942C124.744 46.1988 125.141 45.5359 125.605 45.0057C126.069 44.4091 126.666 44.0114 127.395 43.68C128.124 43.3486 128.919 43.2161 129.781 43.2161C130.643 43.2161 131.504 43.3486 132.167 43.68C132.83 44.0114 133.36 44.4091 133.824 44.9394V39.0403C133.824 38.8414 133.824 38.7089 134.023 38.5763C134.156 38.4437 134.288 38.3774 134.487 38.3774H137.271C137.47 38.3774 137.602 38.3774 137.735 38.5763C137.867 38.7089 137.934 38.8414 137.934 39.0403V56.8702C137.934 57.0691 137.934 57.2017 137.735 57.3342C137.602 57.4668 137.47 57.5331 137.271 57.5331H134.686C134.487 57.5331 134.354 57.5331 134.222 57.3342C134.089 57.2017 134.023 57.0691 134.023 56.8702V55.9423C133.559 56.4725 133.029 56.9365 132.3 57.2679C131.637 57.5993 130.775 57.7982 129.715 57.7982L129.781 57.8645ZM130.974 54.6166C131.637 54.6166 132.167 54.4841 132.565 54.1527C132.963 53.8212 133.294 53.4898 133.427 52.9596C133.625 52.4956 133.692 51.9653 133.758 51.4351C133.758 51.1037 133.758 50.7723 133.758 50.4408C133.758 50.1094 133.758 49.778 133.758 49.4466C133.758 48.9163 133.625 48.4524 133.427 48.0547C133.228 47.5907 132.896 47.2593 132.499 46.9279C132.101 46.6627 131.571 46.4639 130.908 46.4639C130.245 46.4639 129.715 46.5965 129.317 46.9279C128.919 47.193 128.654 47.5907 128.455 48.121C128.256 48.5849 128.19 49.1152 128.124 49.7117C128.124 50.242 128.124 50.8385 128.124 51.3688C128.124 51.9653 128.256 52.4956 128.455 52.9596C128.654 53.4236 128.919 53.8212 129.317 54.1527C129.715 54.4178 130.245 54.6166 130.908 54.6166H130.974Z" fill="white"/>
<path d="M144.164 62.7693C144.032 62.7693 143.899 62.7693 143.767 62.6367C143.634 62.5041 143.568 62.3716 143.568 62.239C143.568 62.1064 143.568 62.1727 143.568 62.1064C143.568 62.1064 143.568 61.9739 143.634 61.9076L145.755 56.8701L140.585 44.6079C140.585 44.4753 140.519 44.3428 140.519 44.2765C140.519 44.1439 140.585 43.9451 140.718 43.8788C140.85 43.7462 140.983 43.6799 141.115 43.6799H143.767C144.032 43.6799 144.164 43.6799 144.297 43.8788C144.429 44.0113 144.496 44.1439 144.562 44.2765L147.942 52.6281L151.389 44.2765C151.455 44.1439 151.522 44.0113 151.654 43.8788C151.787 43.7462 151.919 43.7462 152.185 43.7462H154.77C154.902 43.7462 155.101 43.7462 155.167 43.9451C155.3 44.0776 155.366 44.2102 155.366 44.3428C155.366 44.4753 155.366 44.5416 155.233 44.7404L147.611 62.4379C147.611 62.5704 147.478 62.703 147.346 62.8356C147.213 62.9681 147.081 62.9681 146.816 62.9681H144.297L144.164 62.7693Z" fill="white"/>
</g>
<defs>
<clipPath id="clip0_95_3567">
<rect width="155.697" height="69" fill="white"/>
</clipPath>
</defs>
</svg>
