<svg width="95" height="43" viewBox="0 0 95 43" fill="none" xmlns="http://www.w3.org/2000/svg">
<g clip-path="url(#clip0_95_3617)">
<path d="M20.8589 38.442C20.9396 39.1278 20.3344 39.7734 19.6486 39.733C19.0434 39.733 18.4785 39.2085 18.5189 38.6033C18.5189 37.9982 18.9627 37.4333 19.5275 37.3526C20.2134 37.1912 20.8993 37.7561 20.8589 38.442Z" fill="#F2C7AC"/>
<path d="M28.0001 27.9521C28.5649 28.7994 28.6456 29.8484 28.6456 30.857C28.6456 32.2692 28.0404 33.6409 27.2739 34.8109C26.7494 35.6985 26.0232 36.5458 25.9425 37.5948C25.9021 38.0789 26.0635 38.5631 26.4266 38.8859C25.1355 39.5717 23.7234 40.1366 22.3113 40.54C21.8272 40.6611 21.343 40.7821 20.8589 40.8225C21.343 40.4997 21.7868 40.0962 22.0289 39.5314C22.3517 38.8455 22.3113 37.9983 21.9482 37.3124C24.0462 35.6179 25.9021 33.5602 27.0318 31.1395C27.5159 30.1712 27.758 29.0818 27.9598 28.0328H28.0001V27.9521Z" fill="#F2C7AC"/>
<path d="M32.8013 20.2864C34.2538 22.6668 34.859 25.5313 34.6976 28.3152C34.5765 29.7273 34.2941 31.1797 33.7293 32.4708C33.1644 33.7619 32.3575 34.9319 31.3892 35.9406C30.6226 36.7071 29.8157 37.393 28.8474 37.8771C28.4036 38.0789 27.9195 38.2403 27.395 38.1596C27.0722 38.0385 27.0722 37.6351 27.1529 37.3527C27.4353 36.5054 28.0809 35.8195 28.5247 35.0529C29.5333 33.4795 29.9771 31.5025 29.7754 29.6466C29.6543 28.638 29.2912 27.6697 28.8474 26.782C28.4036 25.9348 27.6774 25.3296 26.9108 24.8454C26.7898 24.7648 26.9108 24.6437 26.9915 24.563C27.7984 23.6754 28.565 22.7071 29.0895 21.6581C29.7754 20.2864 30.2192 18.8339 30.3402 17.3008C30.4209 17.3411 30.5016 17.4218 30.5823 17.4622C31.4699 18.3094 32.1961 19.2374 32.8417 20.2864H32.8013Z" fill="#F2C7AC"/>
<path d="M24.8127 22.8685C24.9338 23.4334 24.8127 24.0386 24.611 24.5631C24.2076 25.5717 23.1989 26.2979 22.1499 26.4997C21.5447 26.5804 20.8992 26.4997 20.3344 26.2576C19.4064 25.8541 18.7609 24.9665 18.5995 23.9982C18.5188 23.3527 18.5591 22.6265 18.8819 22.0213C19.3257 21.0933 20.2537 20.4074 21.2623 20.2461C22.0289 20.125 22.7955 20.2864 23.441 20.7302C24.1672 21.2144 24.6917 21.9809 24.8127 22.8282V22.8685Z" fill="#F2C7AC"/>
<path d="M26.7898 26.9838C26.8302 27.6697 26.6688 28.3152 26.5074 29.0011C25.8619 31.3412 24.3691 33.3988 22.5939 35.053C22.1097 35.4968 21.6256 35.9809 21.0607 36.3441C20.7783 36.2634 20.5362 36.1423 20.2538 36.0616C19.5679 35.9406 18.8417 36.0616 18.2769 36.4247C17.3892 36.9896 16.9051 38.1596 17.1875 39.1683C17.3489 39.8138 17.7927 40.3383 18.3575 40.6611C18.5593 40.7821 18.8014 40.8628 19.0434 40.9838C17.2682 41.0645 15.4527 40.9031 13.7178 40.419C13.1126 40.2576 12.5478 40.0559 11.9829 39.8541C12.346 39.6928 12.7091 39.6524 13.0722 39.5314C14.2423 39.2086 15.3316 38.4824 16.0982 37.5544C16.542 36.9896 16.8648 36.3037 16.8648 35.5775C16.9454 34.6495 16.7034 33.6409 16.0578 32.9147C15.6947 32.4709 15.1702 32.1481 14.6054 31.9867C14.6861 31.6639 14.8878 31.3815 15.0895 31.0991C15.9771 29.8484 17.2682 28.9204 18.6803 28.3959C19.4872 28.1135 20.2941 27.8714 21.1414 27.9118C21.8676 27.8714 22.5939 27.7907 23.2394 27.5083C23.9656 27.1855 24.6515 26.7417 25.1356 26.0962C25.2567 25.9348 25.3374 25.7734 25.4584 25.6524C25.6198 25.6121 25.7408 25.7331 25.9022 25.7734C26.3057 26.0559 26.6688 26.4593 26.7495 26.9838H26.7898ZM22.9973 32.5515C23.1587 32.2288 23.1184 31.785 23.078 31.4219C23.0377 31.0587 22.5939 30.9781 22.2711 30.9377C22.029 30.9377 21.8273 30.9377 21.5852 30.9377C21.5852 30.5343 21.5852 30.1308 21.5045 29.7273C21.3028 29.2432 20.738 29.3239 20.2941 29.3239C20.0117 29.3239 19.7697 29.5256 19.7293 29.808C19.6486 30.1711 19.7293 30.5746 19.689 30.9781C19.3258 30.9781 18.9627 30.9781 18.5996 31.0184C18.2769 31.0991 18.1962 31.4622 18.1962 31.7446C18.1962 32.0674 18.1962 32.4708 18.4786 32.6726C18.8417 32.8743 19.2855 32.7533 19.689 32.7936C19.689 33.1567 19.689 33.5198 19.7697 33.883C19.8503 34.1654 20.0924 34.3268 20.3748 34.3268C20.738 34.3268 21.2221 34.4074 21.4642 34.0443C21.6256 33.6409 21.5449 33.2374 21.5852 32.834C22.029 32.834 22.6342 32.9953 22.9973 32.5515Z" fill="#F2C7AC"/>
<path d="M29.9368 3.66388C30.0578 4.4708 29.9368 5.35841 29.4123 6.04428C29.0895 6.52843 28.6053 6.8512 28.2019 7.25466C27.9598 7.45639 27.9598 7.85985 28.0809 8.14227C28.4843 9.15091 28.7264 10.1999 28.8878 11.2489C29.0895 12.4593 29.2509 13.6696 29.2105 14.88C29.2105 15.4449 29.1298 15.9694 29.0895 16.4939C29.0088 17.3815 28.9281 18.3094 28.686 19.197C28.4843 19.8426 28.2826 20.5284 27.9598 21.1336C27.637 21.7792 27.2336 22.344 26.7898 22.9088C26.5881 23.1509 26.3863 23.4333 26.1039 23.6351C26.3056 21.416 24.4497 19.2374 22.2307 19.0356C21.2624 18.955 20.2538 19.1567 19.4468 19.6812C18.3979 20.3267 17.6313 21.4564 17.3892 22.7071C17.1875 23.7561 17.3892 24.8858 17.9541 25.8137C18.2365 26.2575 18.5996 26.661 18.9627 26.9838C17.4699 27.5486 16.0578 28.3152 14.9281 29.4449C14.2422 30.1307 13.7581 30.9377 13.2739 31.7446C12.9915 31.7446 12.7091 31.7042 12.467 31.6639C11.418 31.5025 10.3287 31.3008 9.32005 30.9377C8.71486 30.7359 8.15002 30.3325 7.66587 29.929C7.3431 29.6869 6.8186 29.929 6.77826 30.2921C6.69757 30.5745 6.85895 30.857 7.02033 31.0184C7.54483 31.5832 8.3114 31.8656 9.03762 32.148C10.127 32.5111 11.2566 32.7129 12.4267 32.8743C13.1126 32.955 13.7581 32.9953 14.444 33.1567C14.8071 33.2374 15.2105 33.4391 15.4123 33.7619C15.9771 34.5284 15.8964 35.6178 15.4526 36.4247C14.8878 37.5544 13.6774 38.2806 12.467 38.5227C11.418 38.7244 10.3287 38.6841 9.2797 38.442C7.70621 38.0789 6.25376 37.2316 5.08373 36.1423C3.06644 34.3671 1.89641 31.7849 1.49296 29.1624C0.96846 25.5717 1.97711 21.7792 4.23647 18.955C4.76097 18.3498 5.28546 17.7042 5.931 17.2201C6.25376 18.3094 6.65722 19.3584 7.26241 20.3267C7.3431 20.4881 7.46414 20.6091 7.54483 20.8109C7.38345 21.0529 7.18172 21.2547 7.02033 21.5371C6.53618 22.2633 6.3748 23.1913 6.53618 24.0385C6.65722 25.2892 7.14137 26.4996 7.74656 27.6293C7.90794 27.9521 8.19036 28.2345 8.15002 28.5976C8.15002 29.2028 8.67451 29.7676 9.2797 29.7273C10.127 29.7273 10.8532 28.8397 10.5304 28.0328C10.3287 27.4679 9.68316 27.3065 9.15866 27.3872C8.71486 26.6207 8.3114 25.8137 8.02898 24.9261C7.74656 24.1596 7.62552 23.272 7.94829 22.465C8.47278 21.1336 10.1673 20.4881 11.4584 21.0529C12.1039 21.295 12.5881 21.8195 12.9108 22.4247C13.3143 23.0702 13.5967 23.7964 13.8388 24.5227C13.9195 24.7647 14.0002 25.0068 14.0405 25.2489C13.9598 25.5313 13.7581 25.7734 13.7581 26.0962C13.6774 26.5803 13.9598 27.1048 14.444 27.2662C15.1298 27.4679 15.8561 26.9434 15.9368 26.2575C15.9368 25.8944 15.7754 25.5313 15.5333 25.2892C15.2105 24.9665 15.0895 24.5227 14.9685 24.1192C14.565 22.8281 14.0405 21.416 12.9512 20.5284C11.9022 19.6005 10.3287 19.4391 9.03762 19.9232C8.91659 19.9232 8.71486 20.0846 8.63417 19.9232C7.8676 18.9953 7.42379 17.8253 7.22206 16.6149C7.06068 15.6869 6.97999 14.759 7.02033 13.831C7.10103 12.3786 7.30275 10.8858 7.66587 9.47368C7.7869 8.98953 7.90794 8.54573 8.10967 8.10192C8.23071 7.8195 8.23071 7.45639 7.94829 7.21431C7.50448 6.81086 6.97999 6.44774 6.65722 5.92325C5.89065 4.79356 6.05203 3.05869 7.14137 2.21143C8.23071 1.32382 9.96558 1.44486 10.9742 2.45351C11.2566 2.69558 11.418 3.09904 11.8215 3.22008C12.1443 3.30077 12.467 3.09904 12.7494 2.93766C13.5564 2.45351 14.444 2.17109 15.3316 1.96936C16.3402 1.76763 17.3892 1.64659 18.3979 1.64659C20.2941 1.72728 22.2711 2.09039 23.8849 3.09904C24.1673 3.30077 24.5708 3.34111 24.8128 3.09904C25.0146 2.89731 25.176 2.65524 25.3777 2.45351C26.2653 1.60624 27.6774 1.36417 28.7264 1.96936C29.4123 2.33247 29.8964 2.978 30.0578 3.74457L29.9368 3.66388ZM22.5938 10.5227C23.0376 10.2806 23.2394 9.71576 23.1183 9.23161C23.0376 8.66676 22.4324 8.14227 21.8272 8.344C21.101 8.58607 20.7379 9.63506 21.2624 10.2403C21.5448 10.6437 22.15 10.7647 22.5938 10.5227ZM21.5448 15.0817C21.7466 14.7993 21.5448 14.3152 21.1817 14.3152C20.7783 14.2345 20.5362 14.5573 20.2134 14.759C19.6889 15.0817 19.0434 15.2835 18.4382 15.3642C18.4382 14.7993 18.4382 14.2345 18.4382 13.71C19.1644 13.589 19.8503 13.1452 20.1731 12.4593C20.3748 12.0155 20.3345 11.4506 19.931 11.1279C19.2451 10.6034 18.3172 10.6034 17.4699 10.6437C16.9051 10.7244 16.2595 10.8051 15.8561 11.2892C15.614 11.5717 15.614 12.0155 15.7754 12.3382C16.0578 12.9838 16.7033 13.4276 17.3892 13.6293C17.4699 13.6293 17.5909 13.71 17.5909 13.7907C17.5909 14.2748 17.5909 14.7993 17.5909 15.2835C17.3085 15.2835 17.0261 15.2835 16.7437 15.2028C16.2192 15.0818 15.735 14.7993 15.3719 14.4362C15.1702 14.2345 14.7667 14.2345 14.565 14.4362C14.3633 14.6379 14.4036 15.0011 14.565 15.2028C15.2509 15.9694 16.2192 16.4132 17.2278 16.5342C18.3575 16.6552 19.5275 16.5342 20.4958 15.9694C20.8993 15.7273 21.3431 15.4449 21.6255 15.0414L21.5448 15.0817ZM14.7667 9.95783C14.9685 9.51403 14.8878 8.98953 14.565 8.62642C14.3633 8.38434 14.0002 8.2633 13.6774 8.344C13.1529 8.46503 12.7494 8.90884 12.7091 9.47368C12.6687 9.91748 12.9108 10.3613 13.3143 10.563C13.8388 10.7647 14.4843 10.4823 14.7264 9.99818L14.7667 9.95783Z" fill="#F2C7AC"/>
<path d="M35.9886 26.0962C36.0693 26.7821 35.9886 27.5083 36.0289 28.1942C35.9482 29.8483 35.5851 31.5025 34.8993 32.9953C33.8503 35.3354 32.075 37.3527 29.8964 38.6841C29.3315 39.0068 28.7263 39.2086 28.1615 39.491C26.7494 40.2172 25.2969 40.9031 23.7638 41.4276C21.0606 42.3555 18.075 42.5573 15.2508 42.0731C12.6687 41.6293 10.2076 40.5803 7.82721 39.4103C5.48715 38.442 3.38917 36.7475 2.01741 34.5688C0.484267 32.0674 -0.201612 29.0414 0.040463 26.0962C0.322884 21.9809 2.42087 18.0674 5.52749 15.3642C5.52749 14.6783 5.48715 13.9521 5.56784 13.2662C5.64853 12.3786 5.76957 11.4506 5.93095 10.563C6.09234 9.63509 6.25372 8.74748 6.65718 7.90022C6.01165 7.41607 5.40646 6.81088 5.04334 6.08465C4.51885 4.99532 4.5592 3.62356 5.04334 2.53422C5.48715 1.64661 6.25372 0.960736 7.14133 0.637969C8.31136 0.194165 9.72346 0.274857 10.8128 0.960736C11.1759 1.20281 11.539 1.48523 11.8618 1.84834C12.7494 1.32385 13.7984 0.960736 14.807 0.718661C17.8733 -0.0075638 21.2624 0.315203 24.0462 1.84834C24.8531 0.880044 26.1442 0.315203 27.3949 0.395894C28.4439 0.395894 29.4929 0.92039 30.1788 1.72731C31.5102 3.09906 31.5102 5.43912 30.2998 6.89157C30.0174 7.29503 29.614 7.6178 29.2508 7.94056C29.735 9.0299 29.8964 10.1596 30.0578 11.3296C30.2595 12.7014 30.4209 14.0731 30.4209 15.4449C32.5189 17.3008 34.173 19.6409 35.101 22.3037C35.5044 23.5544 35.7869 24.8455 35.9079 26.1769L35.9886 26.0962ZM34.6975 28.2749C34.8589 25.491 34.2537 22.6668 32.8013 20.246C32.1557 19.197 31.4295 18.2691 30.5419 17.4218C30.4612 17.3411 30.3805 17.3008 30.2998 17.2604C30.1788 18.7936 29.735 20.246 29.0491 21.6178C28.5246 22.7071 27.7984 23.6754 26.9511 24.5227C26.9108 24.6034 26.7494 24.7244 26.8704 24.8051C27.637 25.3296 28.3632 25.9348 28.807 26.7417C29.2508 27.6293 29.614 28.5976 29.735 29.6063C29.9367 31.4622 29.4929 33.4391 28.4843 35.0126C28.0405 35.7792 27.3949 36.4247 27.1125 37.3123C27.0318 37.5947 26.9915 38.0385 27.3546 38.1192C27.8387 38.1999 28.3632 38.0385 28.807 37.8368C29.7753 37.3527 30.6226 36.6668 31.3488 35.9002C32.3171 34.8916 33.1644 33.7215 33.6889 32.4305C34.2941 31.1394 34.5361 29.687 34.6572 28.2749H34.6975ZM29.4122 6.04431C29.9367 5.39878 30.0578 4.47082 29.9367 3.66391C29.7753 2.93768 29.2912 2.2518 28.6053 1.88869C27.5563 1.32385 26.1039 1.56592 25.2566 2.37284C25.0549 2.57457 24.8531 2.7763 24.6918 3.01837C24.4497 3.30079 24.0059 3.26045 23.7638 3.01837C22.1096 1.96938 20.173 1.64661 18.2768 1.56592C17.2278 1.56592 16.2191 1.68696 15.2105 1.88869C14.3229 2.09042 13.4353 2.37284 12.6284 2.85699C12.3459 3.01837 12.0635 3.2201 11.7004 3.13941C11.2969 3.01837 11.1759 2.61491 10.8531 2.37284C9.8445 1.40454 8.10963 1.2835 7.02029 2.13076C5.93095 2.97803 5.72922 4.7129 6.53614 5.84258C6.89925 6.36708 7.3834 6.73019 7.82721 7.13365C8.06928 7.33537 8.10963 7.73883 7.98859 8.02125C7.78686 8.46506 7.66582 8.94921 7.54479 9.39301C7.18167 10.8051 6.97995 12.2979 6.89925 13.7504C6.85891 14.6783 6.89925 15.6063 7.10098 16.5342C7.30271 17.7043 7.74652 18.8743 8.51309 19.8426C8.59378 20.004 8.79551 19.8426 8.91654 19.8426C10.2076 19.3584 11.7811 19.5198 12.8301 20.4478C13.9194 21.3757 14.4439 22.7475 14.8474 24.0385C15.0088 24.442 15.0895 24.8858 15.4122 25.2086C15.6543 25.4506 15.856 25.8138 15.8157 26.1769C15.7753 26.8628 15.0088 27.4276 14.3229 27.1855C13.8387 27.0241 13.5967 26.4996 13.637 26.0155C13.637 25.6927 13.8387 25.4506 13.9194 25.1682C13.9194 24.9262 13.7984 24.6841 13.7177 24.442C13.4756 23.7158 13.1932 22.9896 12.7897 22.344C12.467 21.7792 11.9828 21.2547 11.3373 20.9723C10.0462 20.4478 8.3517 21.0933 7.82721 22.3844C7.50444 23.1509 7.62548 24.0385 7.9079 24.8455C8.19032 25.6927 8.59378 26.4996 9.03758 27.3066C9.56208 27.2662 10.2076 27.4276 10.4093 27.9521C10.7321 28.759 10.0059 29.687 9.15862 29.6466C8.55343 29.6466 7.98859 29.1221 8.02894 28.5169C8.02894 28.1538 7.78686 27.8714 7.62548 27.5486C7.02029 26.4593 6.53614 25.2489 6.4151 23.9579C6.29407 23.1106 6.4151 22.1826 6.89925 21.4564C7.06064 21.2143 7.26237 20.9723 7.42375 20.7302C7.34306 20.5688 7.26237 20.4074 7.14133 20.246C6.53614 19.2777 6.13268 18.2287 5.80992 17.1394C5.16438 17.6236 4.63989 18.2691 4.11539 18.8743C1.85602 21.6985 0.84738 25.491 1.37188 29.0818C1.73499 31.7043 2.94536 34.2864 4.96265 36.0616C6.17303 37.1509 7.58513 37.9982 9.15862 38.3613C10.2076 38.6034 11.2969 38.6437 12.3459 38.442C13.5563 38.1596 14.7263 37.4737 15.3315 36.344C15.7753 35.5371 15.856 34.4478 15.2912 33.6812C15.0895 33.3584 14.7263 33.1567 14.3229 33.076C13.6774 32.9146 12.9915 32.8743 12.3056 32.7936C11.1759 32.6322 10.0462 32.4305 8.91654 32.0674C8.19032 31.8253 7.4641 31.5025 6.89925 30.9377C6.69752 30.736 6.57649 30.4535 6.65718 30.2115C6.73787 29.8483 7.26237 29.6063 7.54479 29.8483C8.06928 30.2518 8.59378 30.6149 9.19897 30.857C10.2076 31.2201 11.2566 31.4218 12.3459 31.5832C12.6284 31.5832 12.9108 31.6639 13.1529 31.6639C13.637 30.857 14.1615 30.0501 14.807 29.3642C15.8964 28.2345 17.3488 27.4679 18.8416 26.9031C18.4382 26.5803 18.075 26.1769 17.833 25.7331C17.2681 24.8051 17.0664 23.6754 17.2681 22.6264C17.5102 21.3757 18.2768 20.2864 19.3258 19.6005C20.173 19.076 21.1413 18.8743 22.1096 18.955C24.3286 19.1567 26.1846 21.295 25.9828 23.5544C26.2652 23.3527 26.4266 23.1106 26.6687 22.8282C27.1125 22.2633 27.516 21.6985 27.8387 21.053C28.1615 20.4478 28.3632 19.8022 28.565 19.1164C28.8474 18.2287 28.8877 17.3008 28.9684 16.4132C29.0088 15.8887 29.0895 15.3238 29.0895 14.7994C29.0895 13.589 28.9684 12.3786 28.7667 11.1682C28.565 10.1192 28.3632 9.0299 27.9598 8.0616C27.8387 7.77918 27.8387 7.41607 28.0808 7.17399C28.4843 6.77053 28.9684 6.44777 29.2912 5.96362L29.4122 6.04431ZM28.6053 30.857C28.6053 29.8483 28.565 28.7994 27.9598 27.9521H27.9194C27.758 29.0414 27.4756 30.1308 26.9915 31.0991C25.8214 33.5602 23.9655 35.5774 21.9079 37.272C22.271 37.9579 22.3114 38.8051 21.9886 39.491C21.7465 40.0558 21.3027 40.4593 20.8186 40.7821C21.3027 40.7821 21.7869 40.6207 22.271 40.4996C23.7235 40.1365 25.0952 39.5717 26.3863 38.8455C26.0232 38.5227 25.8618 38.0385 25.9021 37.5544C25.9828 36.4651 26.7091 35.6178 27.2335 34.7705C28.0001 33.6005 28.565 32.2287 28.6053 30.8166V30.857ZM26.5073 29.0011C26.6687 28.3555 26.8301 27.6697 26.7897 26.9838C26.7091 26.4593 26.3459 26.0558 25.9425 25.7734C25.8214 25.6927 25.6601 25.5717 25.4987 25.6524C25.3776 25.7734 25.2566 25.9348 25.1759 26.0962C24.6918 26.7417 24.0059 27.2259 23.2797 27.5083C22.6341 27.7907 21.9079 27.8714 21.1817 27.9117C20.3344 27.9117 19.5275 28.1538 18.7206 28.3959C17.3085 28.9204 16.0174 29.8483 15.1298 31.0991C14.9281 31.3815 14.7263 31.6236 14.6456 31.9867C15.2105 32.1481 15.6946 32.4708 16.0981 32.9146C16.7436 33.6409 16.9857 34.6091 16.905 35.5774C16.905 36.3037 16.5823 36.9896 16.1384 37.5544C15.3719 38.4823 14.3229 39.2086 13.1125 39.5313C12.7494 39.6524 12.3459 39.6927 12.0232 39.8541C12.588 40.0558 13.1932 40.2576 13.758 40.4189C15.4929 40.9031 17.3085 41.0645 19.0837 40.9838C18.882 40.8628 18.5995 40.8224 18.3978 40.661C17.833 40.3383 17.3892 39.7734 17.2278 39.1682C16.9454 38.1596 17.4295 36.9896 18.3171 36.4247C18.882 36.0213 19.6082 35.9002 20.2941 36.0616C20.5765 36.1019 20.8186 36.2633 21.101 36.344C21.6658 35.9809 22.1096 35.4968 22.6341 35.053C24.4093 33.3988 25.9021 31.3815 26.5477 29.0011H26.5073ZM24.6111 24.6034C24.8128 24.0789 24.9742 23.4737 24.8128 22.9089C24.6514 22.0616 24.1673 21.295 23.441 20.8109C22.7955 20.3671 22.0289 20.2057 21.2624 20.3267C20.2537 20.4881 19.2854 21.174 18.882 22.1019C18.5592 22.7071 18.5188 23.393 18.5995 24.0789C18.7609 25.0472 19.4065 25.9348 20.3344 26.3383C20.8993 26.6207 21.5448 26.661 22.15 26.5803C23.2393 26.3786 24.2076 25.6524 24.6111 24.6437V24.6034ZM19.6485 39.7331C20.3344 39.7331 20.9396 39.1279 20.8589 38.442C20.8589 37.7561 20.173 37.1509 19.5275 37.3527C18.9627 37.4737 18.4785 37.9982 18.5189 38.6034C18.5189 39.2086 19.0433 39.7331 19.6485 39.7331Z" fill="#69417E"/>
<path d="M23.1586 9.27201C23.2797 9.75616 23.0779 10.321 22.6341 10.5631C22.1903 10.7648 21.6255 10.6841 21.3027 10.2807C20.8186 9.67547 21.1413 8.62648 21.8676 8.38441C22.4727 8.18268 23.0376 8.70717 23.1586 9.27201Z" fill="#69417E"/>
<path d="M23.078 31.4219C23.1184 31.785 23.1587 32.1884 22.9973 32.5516C22.6746 32.9954 22.0694 32.7936 21.5852 32.834C21.5449 33.2374 21.5852 33.6812 21.4642 34.0444C21.2625 34.4075 20.738 34.3268 20.3749 34.3268C20.0924 34.3268 19.8504 34.1654 19.7697 33.883C19.6486 33.5199 19.689 33.1567 19.689 32.7936C19.2855 32.7533 18.8417 32.8743 18.4786 32.6726C18.1558 32.4709 18.1962 32.0674 18.1962 31.7446C18.1962 31.4622 18.2769 31.0991 18.5997 31.0184C18.9628 30.9377 19.3259 30.9377 19.689 30.9781C19.689 30.5746 19.689 30.2115 19.7293 29.808C19.7697 29.5256 20.0118 29.3239 20.2942 29.3239C20.6976 29.3239 21.3028 29.2432 21.5046 29.7273C21.5852 30.1308 21.5852 30.5343 21.5852 30.9377C21.8273 30.9377 22.029 30.9377 22.2711 30.9377C22.5939 30.9377 23.0377 31.0184 23.078 31.4219Z" fill="#69417E"/>
<path d="M21.1817 14.3152C21.5448 14.3152 21.7466 14.7993 21.5448 15.0818C21.2624 15.4852 20.8186 15.7676 20.4151 16.0097C19.4468 16.6149 18.2365 16.6956 17.1471 16.5746C16.1385 16.4535 15.1702 16.0097 14.4843 15.2432C14.2826 15.0414 14.2826 14.6783 14.4843 14.4766C14.686 14.2345 15.0895 14.2345 15.2912 14.4766C15.6947 14.8397 16.1385 15.1221 16.663 15.2432C16.9454 15.3238 17.2278 15.3238 17.5102 15.3238C17.5102 14.8397 17.5102 14.3152 17.5102 13.831C17.5102 13.71 17.4295 13.6697 17.3085 13.6697C16.6226 13.4679 15.9771 13.0241 15.6947 12.3786C15.5333 12.0558 15.5333 11.612 15.7754 11.3296C16.1788 10.8455 16.8244 10.7648 17.3892 10.6841C18.2365 10.6437 19.1644 10.6437 19.8503 11.1682C20.2538 11.4506 20.2941 12.0558 20.0924 12.4996C19.7696 13.1855 19.0837 13.6293 18.3575 13.7504C18.3172 14.3152 18.3575 14.88 18.3575 15.4045C18.9627 15.3238 19.6082 15.1221 20.1327 14.7993C20.4555 14.638 20.6976 14.3152 21.101 14.3555L21.1817 14.3152Z" fill="#69417E"/>
<path d="M14.565 8.6265C14.8878 8.98961 14.9685 9.51411 14.7668 9.95791C14.5247 10.4824 13.8792 10.7245 13.3547 10.5228C12.9512 10.3614 12.7091 9.87722 12.7495 9.43341C12.7495 8.90892 13.1933 8.42477 13.7178 8.30373C14.0406 8.26338 14.3633 8.34408 14.6054 8.58615L14.565 8.6265Z" fill="#69417E"/>
<path d="M47.5275 19.2778C46.4785 19.2778 45.5909 19.1164 44.905 18.834C44.2191 18.5516 43.6543 18.1078 43.2912 17.6236C42.928 17.1395 42.7263 16.615 42.7263 16.0501C42.7263 15.9695 42.7263 15.8888 42.807 15.8081C42.8877 15.7274 42.9684 15.687 43.0491 15.687H44.8243C44.9857 15.687 45.0664 15.687 45.1471 15.7677C45.2278 15.8081 45.3085 15.8888 45.3488 16.0098C45.4295 16.2115 45.5505 16.3729 45.7119 16.5343C45.8733 16.6957 46.1154 16.8571 46.3978 16.9781C46.6802 17.0991 47.0433 17.1395 47.4871 17.1395C48.2133 17.1395 48.7378 17.0184 49.101 16.7764C49.4641 16.5343 49.6255 16.2519 49.6255 15.8484C49.6255 15.445 49.5448 15.3239 49.343 15.1625C49.1413 15.0012 48.8589 14.8398 48.4554 14.6784C48.052 14.517 47.4871 14.396 46.8012 14.2346C45.9943 14.0732 45.2681 13.8311 44.7033 13.5487C44.1384 13.2663 43.6946 12.9032 43.4122 12.4594C43.1298 12.0156 42.9684 11.4507 42.9684 10.8052C42.9684 10.1597 43.1298 9.55447 43.4929 9.07032C43.856 8.54582 44.3805 8.14236 45.026 7.85994C45.6716 7.57752 46.4785 7.41614 47.3661 7.41614C48.2537 7.41614 48.7378 7.49683 49.3027 7.69856C49.8675 7.90029 50.3517 8.14236 50.7148 8.46513C51.0779 8.7879 51.4007 9.11066 51.5621 9.47377C51.7638 9.83689 51.8445 10.2 51.8848 10.5228C51.8848 10.6035 51.8848 10.6841 51.8041 10.7648C51.7234 10.8455 51.6427 10.8859 51.5621 10.8859H49.7061C49.5851 10.8859 49.5044 10.8859 49.4237 10.8052C49.343 10.7648 49.2623 10.6841 49.222 10.5631C49.1413 10.2807 48.9799 10.0386 48.6572 9.79654C48.3344 9.55447 47.9309 9.47377 47.4064 9.47377C46.8819 9.47377 46.4381 9.55447 46.1154 9.75619C45.7926 9.95792 45.6312 10.2403 45.6312 10.6438C45.6312 11.0473 45.7119 11.128 45.8733 11.3297C46.0347 11.4911 46.3171 11.6524 46.6802 11.8138C47.0433 11.9349 47.5678 12.0963 48.173 12.2576C49.1413 12.4594 49.9079 12.7014 50.5131 12.9839C51.1182 13.2663 51.5621 13.6294 51.8445 14.0329C52.1269 14.4767 52.2883 15.0012 52.2883 15.687C52.2883 16.3729 52.0866 17.0588 51.6831 17.5833C51.2796 18.1078 50.7148 18.5112 49.9886 18.7937C49.2623 19.0761 48.4151 19.1971 47.4871 19.1971L47.5275 19.2778Z" fill="#69417E"/>
<path d="M54.5477 19.0761C54.4267 19.0761 54.346 19.0761 54.2653 18.955C54.1846 18.8744 54.1443 18.7937 54.1443 18.6726V7.8196C54.1443 7.69856 54.1443 7.61787 54.2653 7.53717C54.346 7.45648 54.4267 7.41614 54.5477 7.41614H56.323C56.444 7.41614 56.5247 7.41614 56.6054 7.53717C56.6861 7.61787 56.7264 7.69856 56.7264 7.8196V11.5314C57.0088 11.1683 57.372 10.8859 57.8158 10.6841C58.2596 10.4824 58.7437 10.3614 59.3489 10.3614C59.9541 10.3614 60.5593 10.5228 61.0838 10.8052C61.5679 11.0876 61.9714 11.5314 62.2538 12.0559C62.5362 12.6207 62.6976 13.2663 62.6976 14.0732V18.6726C62.6976 18.7937 62.6976 18.8744 62.5766 18.955C62.4959 19.0357 62.4152 19.0761 62.2941 19.0761H60.5189C60.3979 19.0761 60.3172 19.0761 60.2365 18.955C60.1558 18.8744 60.1155 18.7937 60.1155 18.6726V14.1942C60.1155 13.6294 59.9541 13.1452 59.6717 12.8225C59.3892 12.4997 58.9858 12.3383 58.4613 12.3383C57.9368 12.3383 57.5333 12.4997 57.2106 12.8225C56.8878 13.1452 56.7264 13.589 56.7264 14.1942V18.6726C56.7264 18.7937 56.7264 18.8744 56.6054 18.955C56.5247 19.0357 56.444 19.0761 56.323 19.0761H54.5477Z" fill="#69417E"/>
<path d="M65.1586 9.23165C65.0375 9.23165 64.9569 9.23165 64.8762 9.11062C64.7955 9.02992 64.7551 8.94923 64.7551 8.82819V7.49678C64.7551 7.37574 64.7551 7.25471 64.8762 7.17402C64.9569 7.09332 65.0375 7.05298 65.1586 7.05298H66.8935C67.0145 7.05298 67.1355 7.09332 67.2162 7.17402C67.2969 7.25471 67.3373 7.37574 67.3373 7.49678V8.82819C67.3373 8.94923 67.2969 9.02992 67.2162 9.11062C67.1355 9.19131 67.0145 9.23165 66.8935 9.23165H65.1586ZM65.2393 19.076C65.1182 19.076 65.0375 19.076 64.9569 18.955C64.8762 18.8743 64.8358 18.7936 64.8358 18.6726V10.9262C64.8358 10.8051 64.8358 10.7244 64.9569 10.6438C65.0375 10.5631 65.1182 10.5227 65.2393 10.5227H66.8935C67.0145 10.5227 67.0952 10.5227 67.1759 10.6438C67.2566 10.7244 67.2969 10.8051 67.2969 10.9262V18.6726C67.2969 18.7936 67.2969 18.8743 67.1759 18.955C67.0952 19.0357 67.0145 19.076 66.8935 19.076H65.2393Z" fill="#69417E"/>
<path d="M70.9281 19.076C70.807 19.076 70.7263 19.076 70.6456 18.955C70.5649 18.8743 70.5246 18.7936 70.5246 18.6726V12.4593H69.2335C69.1125 12.4593 69.0318 12.4593 68.9511 12.3383C68.8704 12.2576 68.8301 12.1769 68.8301 12.0559V10.9262C68.8301 10.8051 68.8301 10.7245 68.9511 10.6438C69.0318 10.5631 69.1125 10.5227 69.2335 10.5227H70.5246V9.91754C70.5246 9.23166 70.6456 8.62647 70.9281 8.18267C71.2105 7.73886 71.5736 7.4161 72.0981 7.21437C72.5822 7.01264 73.2278 6.8916 73.954 6.8916H75.1644C75.2854 6.8916 75.3661 6.8916 75.4468 7.01264C75.5275 7.09333 75.5678 7.17402 75.5678 7.29506V8.42474C75.5678 8.54578 75.5678 8.62647 75.4468 8.70716C75.3661 8.78786 75.2854 8.8282 75.1644 8.8282H74.075C73.6716 8.8282 73.3892 8.90889 73.2278 9.11062C73.0664 9.31235 72.9857 9.59477 72.9857 9.99823V10.5227H75.003C75.124 10.5227 75.2047 10.5227 75.2854 10.6438C75.3661 10.7245 75.4064 10.8051 75.4064 10.9262V12.0559C75.4064 12.1769 75.4064 12.2576 75.2854 12.3383C75.2047 12.419 75.124 12.4593 75.003 12.4593H72.9857V18.6726C72.9857 18.7936 72.9857 18.8743 72.8647 18.955C72.784 19.0357 72.7033 19.076 72.5822 19.076H70.9684H70.9281Z" fill="#69417E"/>
<path d="M81.418 19.0761C80.7321 19.0761 80.1673 18.955 79.6831 18.7533C79.199 18.5112 78.8358 18.1885 78.5938 17.7043C78.3517 17.2202 78.2307 16.6553 78.2307 15.9291V12.4594H76.9396C76.8186 12.4594 76.7379 12.4594 76.6572 12.3383C76.5765 12.2576 76.5361 12.1769 76.5361 12.0559V10.9262C76.5361 10.8052 76.5361 10.7245 76.6572 10.6438C76.7379 10.5631 76.8186 10.5228 76.9396 10.5228H78.2307V7.8196C78.2307 7.69856 78.271 7.61787 78.3517 7.53717C78.4324 7.45648 78.5131 7.41614 78.6341 7.41614H80.2479C80.369 7.41614 80.4497 7.41614 80.5304 7.53717C80.6111 7.61787 80.6514 7.69856 80.6514 7.8196V10.5228H82.709C82.8301 10.5228 82.9108 10.5228 82.9915 10.6438C83.0722 10.7245 83.1125 10.8052 83.1125 10.9262V12.0559C83.1125 12.1769 83.1125 12.2576 82.9915 12.3383C82.9108 12.419 82.8301 12.4594 82.709 12.4594H80.6514V15.7274C80.6514 16.1308 80.7321 16.4536 80.8935 16.6957C81.0549 16.9378 81.2969 17.0588 81.6601 17.0588H82.8704C82.9915 17.0588 83.0722 17.0588 83.1529 17.1798C83.2335 17.2605 83.2739 17.3412 83.2739 17.4622V18.6726C83.2739 18.7937 83.2739 18.8744 83.1529 18.955C83.0722 19.0357 82.9915 19.0761 82.8704 19.0761H81.4583H81.418Z" fill="#69417E"/>
<path d="M43.8156 35.3758C43.6945 35.3758 43.6138 35.3758 43.5331 35.2547C43.4525 35.174 43.4121 35.0933 43.4121 34.9723V24.2807C43.4121 24.1596 43.4121 24.0789 43.5331 23.9982C43.6542 23.9175 43.6945 23.8772 43.8156 23.8772H48.6974C49.6254 23.8772 50.3516 23.9982 50.9164 24.2807C51.4813 24.5631 51.9251 24.9262 52.2075 25.4103C52.4899 25.8945 52.611 26.4593 52.611 27.1049C52.611 27.7504 52.5303 27.8714 52.4092 28.1942C52.2478 28.517 52.0865 28.759 51.8847 28.9608C51.683 29.1625 51.4813 29.3239 51.2795 29.4046C51.7233 29.6063 52.0865 29.9291 52.4092 30.3729C52.732 30.8167 52.8934 31.3815 52.8934 31.9867C52.8934 32.5919 52.732 33.2778 52.4496 33.8023C52.1268 34.3268 51.683 34.7302 51.0778 35.0126C50.4726 35.2951 49.7464 35.4564 48.8588 35.4564H43.8156V35.3758ZM45.9942 28.517H48.3746C48.8991 28.517 49.2623 28.3959 49.5447 28.1135C49.7868 27.8714 49.9481 27.5083 49.9481 27.1049C49.9481 26.7014 49.8271 26.3786 49.5447 26.1366C49.3026 25.8945 48.8991 25.7734 48.3746 25.7734H45.9942V28.517ZM45.9942 33.4795H48.4957C49.0202 33.4795 49.4236 33.3181 49.7061 33.0357C49.9885 32.7533 50.1095 32.3902 50.1095 31.9464C50.1095 31.5026 49.9885 31.1394 49.7061 30.857C49.4236 30.5746 49.0202 30.4132 48.4957 30.4132H45.9942V33.4392V33.4795Z" fill="#69417E"/>
<path d="M57.9367 35.5371C57.2911 35.5371 56.7263 35.3757 56.2421 35.0933C55.758 34.8109 55.3949 34.3671 55.1124 33.8426C54.83 33.2777 54.709 32.6322 54.709 31.8253V27.2258C54.709 27.1048 54.709 27.0241 54.83 26.9434C54.9107 26.8627 54.9914 26.8224 55.1124 26.8224H56.8473C56.9683 26.8224 57.049 26.8224 57.1297 26.9434C57.2104 27.0241 57.2508 27.1048 57.2508 27.2258V31.7042C57.2508 32.9146 57.7753 33.5601 58.8646 33.5601C59.9539 33.5601 59.7926 33.3988 60.075 33.076C60.3574 32.7532 60.5188 32.3094 60.5188 31.7042V27.2258C60.5188 27.1048 60.5188 27.0241 60.6398 26.9434C60.7205 26.8627 60.8012 26.8224 60.9222 26.8224H62.6571C62.7781 26.8224 62.8588 26.8224 62.9395 26.9434C63.0202 27.0241 63.0606 27.1048 63.0606 27.2258V34.9722C63.0606 35.0933 63.0606 35.174 62.9395 35.2547C62.8588 35.3354 62.7781 35.3757 62.6571 35.3757H61.0433C60.9222 35.3757 60.8415 35.3757 60.7609 35.2547C60.6802 35.174 60.6398 35.0933 60.6398 34.9722V34.3267C60.3574 34.7302 59.9943 35.0126 59.5505 35.2143C59.1067 35.416 58.5418 35.5371 57.8963 35.5371H57.9367Z" fill="#69417E"/>
<path d="M68.5477 35.5371C67.9828 35.5371 67.4987 35.4564 67.0952 35.2547C66.6514 35.0933 66.2883 34.8109 66.0059 34.4477C65.7235 34.0846 65.4814 33.6812 65.32 33.197C65.1586 32.7129 65.0779 32.1884 65.0376 31.6235C65.0376 31.4218 65.0376 31.2201 65.0376 31.0587C65.0376 30.8973 65.0376 30.6956 65.0376 30.4939C65.0376 29.929 65.1586 29.4045 65.32 28.9204C65.4814 28.4362 65.7235 28.0328 66.0059 27.71C66.2883 27.3469 66.6514 27.1048 67.0952 26.9031C67.539 26.7014 68.0232 26.6207 68.5477 26.6207C69.0722 26.6207 69.5967 26.7014 70.0001 26.9031C70.4036 27.1048 70.7264 27.3469 71.0088 27.6697V24.0789C71.0088 23.9578 71.0088 23.8771 71.1298 23.7965C71.2105 23.7158 71.2912 23.6754 71.4122 23.6754H73.1068C73.2278 23.6754 73.3085 23.6754 73.3892 23.7965C73.4699 23.8771 73.5102 23.9578 73.5102 24.0789V34.9319C73.5102 35.0529 73.5102 35.1336 73.3892 35.2143C73.3085 35.295 73.2278 35.3354 73.1068 35.3354H71.5333C71.4122 35.3354 71.3315 35.3354 71.2509 35.2143C71.1702 35.1336 71.1298 35.0529 71.1298 34.9319V34.3671C70.8474 34.6898 70.5246 34.9722 70.0808 35.174C69.6774 35.3757 69.1529 35.4967 68.5073 35.4967L68.5477 35.5371ZM69.3143 33.5601C69.7177 33.5601 70.0405 33.4794 70.2826 33.2777C70.5246 33.076 70.7264 32.8743 70.8071 32.5515C70.9281 32.2691 70.9684 31.9463 71.0088 31.6235C71.0088 31.4218 71.0088 31.2201 71.0088 31.0184C71.0088 30.8166 71.0088 30.6149 71.0088 30.4132C71.0088 30.0904 70.9281 29.808 70.8071 29.5659C70.686 29.2835 70.4843 29.0818 70.2422 28.88C70.0001 28.7186 69.6774 28.5976 69.2739 28.5976C68.8705 28.5976 68.5477 28.6783 68.3056 28.88C68.0635 29.0414 67.9022 29.2835 67.7811 29.6062C67.6601 29.8887 67.6197 30.2114 67.5794 30.5746C67.5794 30.8973 67.5794 31.2604 67.5794 31.5832C67.5794 31.9463 67.6601 32.2691 67.7811 32.5515C67.9022 32.8339 68.0635 33.076 68.3056 33.2777C68.5477 33.4391 68.8705 33.5601 69.2739 33.5601H69.3143Z" fill="#69417E"/>
<path d="M78.9971 35.5371C78.4323 35.5371 77.9482 35.4564 77.5447 35.2547C77.1009 35.0933 76.7378 34.8109 76.4554 34.4477C76.1729 34.0846 75.9309 33.6812 75.7695 33.197C75.6081 32.7129 75.5274 32.1884 75.4871 31.6235C75.4871 31.4218 75.4871 31.2201 75.4871 31.0587C75.4871 30.8973 75.4871 30.6956 75.4871 30.4939C75.4871 29.929 75.6081 29.4045 75.7695 28.9204C75.9309 28.4362 76.1729 28.0328 76.4554 27.71C76.7378 27.3469 77.1009 27.1048 77.5447 26.9031C77.9885 26.7014 78.4727 26.6207 78.9971 26.6207C79.5216 26.6207 80.0461 26.7014 80.4496 26.9031C80.8531 27.1048 81.1758 27.3469 81.4582 27.6697V24.0789C81.4582 23.9578 81.4582 23.8771 81.5793 23.7965C81.66 23.7158 81.7407 23.6754 81.8617 23.6754H83.5562C83.6773 23.6754 83.758 23.6754 83.8386 23.7965C83.9193 23.8771 83.9597 23.9578 83.9597 24.0789V34.9319C83.9597 35.0529 83.9597 35.1336 83.8386 35.2143C83.758 35.295 83.6773 35.3354 83.5562 35.3354H81.9827C81.8617 35.3354 81.781 35.3354 81.7003 35.2143C81.6196 35.1336 81.5793 35.0529 81.5793 34.9319V34.3671C81.2969 34.6898 80.9741 34.9722 80.5303 35.174C80.1268 35.3757 79.6023 35.4967 78.9568 35.4967L78.9971 35.5371ZM79.7234 33.5601C80.1268 33.5601 80.4496 33.4794 80.6917 33.2777C80.9337 33.076 81.1355 32.8743 81.2162 32.5515C81.3372 32.2691 81.3775 31.9463 81.4179 31.6235C81.4179 31.4218 81.4179 31.2201 81.4179 31.0184C81.4179 30.8166 81.4179 30.6149 81.4179 30.4132C81.4179 30.0904 81.3372 29.808 81.2162 29.5659C81.0951 29.2835 80.8934 29.0818 80.6513 28.88C80.4092 28.7186 80.0865 28.5976 79.683 28.5976C79.2796 28.5976 78.9568 28.6783 78.7147 28.88C78.4727 29.0414 78.3113 29.2835 78.1902 29.6062C78.0692 29.8887 78.0288 30.2114 77.9885 30.5746C77.9885 30.8973 77.9885 31.2604 77.9885 31.5832C77.9885 31.9463 78.0692 32.2691 78.1902 32.5515C78.3113 32.8339 78.4727 33.076 78.7147 33.2777C78.9568 33.4391 79.2796 33.5601 79.683 33.5601H79.7234Z" fill="#69417E"/>
<path d="M87.7522 38.5227C87.6715 38.5227 87.5908 38.5227 87.5101 38.442C87.4295 38.3613 87.3891 38.2806 87.3891 38.1999C87.3891 38.1192 87.3891 38.1596 87.3891 38.1192C87.3891 38.1192 87.3891 38.0385 87.4295 37.9982L88.7205 34.9319L85.5736 27.4679C85.5736 27.3872 85.5332 27.3065 85.5332 27.2662C85.5332 27.1855 85.5736 27.0645 85.6542 27.0241C85.7349 26.9434 85.8156 26.9031 85.8963 26.9031H87.5101C87.6715 26.9031 87.7522 26.9031 87.8329 27.0241C87.9136 27.1048 87.954 27.1855 87.9943 27.2662L90.0519 32.3498L92.1499 27.2662C92.1903 27.1855 92.2306 27.1048 92.3113 27.0241C92.392 26.9434 92.4727 26.9434 92.6341 26.9434H94.2076C94.2882 26.9434 94.4093 26.9434 94.4496 27.0645C94.5303 27.1452 94.5707 27.2258 94.5707 27.3065C94.5707 27.3872 94.5707 27.4276 94.49 27.5486L89.8502 38.3209C89.8502 38.4016 89.7695 38.4823 89.6888 38.563C89.6081 38.6437 89.5274 38.6437 89.3661 38.6437H87.8329L87.7522 38.5227Z" fill="#69417E"/>
</g>
<defs>
<clipPath id="clip0_95_3617">
<rect width="94.7723" height="42" fill="white" transform="translate(0 0.315186)"/>
</clipPath>
</defs>
</svg>
