<svg width="273" height="75" viewBox="0 0 273 75" fill="none" xmlns="http://www.w3.org/2000/svg">
<g clip-path="url(#clip0_160_1572)">
<rect width="273" height="75" fill="white"/>
<path d="M12 4.5L-22.5 70.5" stroke="#E8E8E8"/>
<path d="M43.5 4.5L9 70.5" stroke="#E8E8E8"/>
<path d="M75 4.5L40.5 70.5" stroke="#E8E8E8"/>
<path d="M106.5 4.5L72 70.5" stroke="#E8E8E8"/>
<path d="M138 4.5L103.5 70.5" stroke="#E8E8E8"/>
<path d="M169.5 4.5L135 70.5" stroke="#E8E8E8"/>
<path d="M201 4.5L166.5 70.5" stroke="#E8E8E8"/>
<path d="M232.5 4.5L198 70.5" stroke="#E8E8E8"/>
<path d="M264 4.5L229.5 70.5" stroke="#E8E8E8"/>
<path d="M295.5 4.5L261 70.5" stroke="#E8E8E8"/>
<path d="M9 29.4L3 26.5359V33.4641L9 30.6V29.4ZM265 30.6L271 33.4641V26.5359L265 29.4V30.6ZM8.4 30V30.6H265.6V30V29.4H8.4V30Z" fill="#69417E"/>
<path d="M80.312 60V48.896H81.368L81.816 50.64V60H80.312ZM87.992 60L81.176 50.896L81.368 48.896L88.2 57.984L87.992 60ZM87.992 60L87.544 58.352V48.896H89.048V60H87.992ZM94.8874 60.16C94.1407 60.16 93.4687 59.984 92.8714 59.632C92.274 59.28 91.7994 58.8053 91.4474 58.208C91.0954 57.6 90.9194 56.9227 90.9194 56.176C90.9194 55.44 91.0954 54.7787 91.4474 54.192C91.7994 53.5947 92.274 53.12 92.8714 52.768C93.4687 52.416 94.1407 52.24 94.8874 52.24C95.6234 52.24 96.29 52.416 96.8874 52.768C97.4954 53.1093 97.9754 53.5787 98.3274 54.176C98.6794 54.7733 98.8554 55.44 98.8554 56.176C98.8554 56.9227 98.6794 57.6 98.3274 58.208C97.9754 58.8053 97.4954 59.28 96.8874 59.632C96.29 59.984 95.6234 60.16 94.8874 60.16ZM94.8874 58.768C95.3674 58.768 95.794 58.656 96.1674 58.432C96.5407 58.208 96.834 57.904 97.0474 57.52C97.2607 57.1253 97.3674 56.6773 97.3674 56.176C97.3674 55.6853 97.2554 55.248 97.0314 54.864C96.818 54.48 96.5247 54.1813 96.1514 53.968C95.7887 53.744 95.3674 53.632 94.8874 53.632C94.4074 53.632 93.9807 53.744 93.6074 53.968C93.234 54.1813 92.9407 54.48 92.7274 54.864C92.514 55.248 92.4074 55.6853 92.4074 56.176C92.4074 56.6773 92.514 57.1253 92.7274 57.52C92.9407 57.904 93.234 58.208 93.6074 58.432C93.9807 58.656 94.4074 58.768 94.8874 58.768ZM105.07 60V58.688H108.43C109.07 58.688 109.571 58.5013 109.934 58.128C110.297 57.744 110.478 57.2853 110.478 56.752C110.478 56.3893 110.398 56.064 110.238 55.776C110.078 55.4773 109.843 55.2427 109.534 55.072C109.235 54.9013 108.883 54.816 108.478 54.816H105.07V53.504H108.254C108.787 53.504 109.209 53.3653 109.518 53.088C109.838 52.8 109.998 52.3893 109.998 51.856C109.998 51.3227 109.833 50.9173 109.502 50.64C109.171 50.352 108.734 50.208 108.19 50.208H105.07V48.896H108.222C108.947 48.896 109.55 49.0293 110.03 49.296C110.521 49.552 110.889 49.8933 111.134 50.32C111.39 50.7467 111.518 51.216 111.518 51.728C111.518 52.3253 111.353 52.848 111.022 53.296C110.702 53.744 110.227 54.096 109.598 54.352L109.726 53.872C110.441 54.128 110.995 54.5173 111.39 55.04C111.795 55.552 111.998 56.16 111.998 56.864C111.998 57.4507 111.854 57.9787 111.566 58.448C111.278 58.9173 110.862 59.296 110.318 59.584C109.785 59.8613 109.129 60 108.35 60H105.07ZM104.062 60V48.896H105.566V60H104.062ZM117.247 60.16C116.5 60.16 115.828 59.984 115.231 59.632C114.633 59.28 114.159 58.8053 113.807 58.208C113.455 57.6 113.279 56.9227 113.279 56.176C113.279 55.44 113.455 54.7787 113.807 54.192C114.159 53.5947 114.633 53.12 115.231 52.768C115.828 52.416 116.5 52.24 117.247 52.24C117.983 52.24 118.649 52.416 119.247 52.768C119.855 53.1093 120.335 53.5787 120.687 54.176C121.039 54.7733 121.215 55.44 121.215 56.176C121.215 56.9227 121.039 57.6 120.687 58.208C120.335 58.8053 119.855 59.28 119.247 59.632C118.649 59.984 117.983 60.16 117.247 60.16ZM117.247 58.768C117.727 58.768 118.153 58.656 118.527 58.432C118.9 58.208 119.193 57.904 119.407 57.52C119.62 57.1253 119.727 56.6773 119.727 56.176C119.727 55.6853 119.615 55.248 119.391 54.864C119.177 54.48 118.884 54.1813 118.511 53.968C118.148 53.744 117.727 53.632 117.247 53.632C116.767 53.632 116.34 53.744 115.967 53.968C115.593 54.1813 115.3 54.48 115.087 54.864C114.873 55.248 114.767 55.6853 114.767 56.176C114.767 56.6773 114.873 57.1253 115.087 57.52C115.3 57.904 115.593 58.208 115.967 58.432C116.34 58.656 116.767 58.768 117.247 58.768ZM126.309 60.16C125.563 60.16 124.891 59.984 124.293 59.632C123.696 59.28 123.221 58.8053 122.869 58.208C122.517 57.6 122.341 56.9227 122.341 56.176C122.341 55.44 122.517 54.7787 122.869 54.192C123.221 53.5947 123.696 53.12 124.293 52.768C124.891 52.416 125.563 52.24 126.309 52.24C127.045 52.24 127.712 52.416 128.309 52.768C128.917 53.1093 129.397 53.5787 129.749 54.176C130.101 54.7733 130.277 55.44 130.277 56.176C130.277 56.9227 130.101 57.6 129.749 58.208C129.397 58.8053 128.917 59.28 128.309 59.632C127.712 59.984 127.045 60.16 126.309 60.16ZM126.309 58.768C126.789 58.768 127.216 58.656 127.589 58.432C127.963 58.208 128.256 57.904 128.469 57.52C128.683 57.1253 128.789 56.6773 128.789 56.176C128.789 55.6853 128.677 55.248 128.453 54.864C128.24 54.48 127.947 54.1813 127.573 53.968C127.211 53.744 126.789 53.632 126.309 53.632C125.829 53.632 125.403 53.744 125.029 53.968C124.656 54.1813 124.363 54.48 124.149 54.864C123.936 55.248 123.829 55.6853 123.829 56.176C123.829 56.6773 123.936 57.1253 124.149 57.52C124.363 57.904 124.656 58.208 125.029 58.432C125.403 58.656 125.829 58.768 126.309 58.768ZM136.764 60L133.212 56.112L136.732 52.4H138.476L134.556 56.496L134.62 55.664L138.62 60H136.764ZM131.9 60V48.576H133.34V60H131.9ZM139.603 60V52.4H141.043V60H139.603ZM140.323 50.88C140.057 50.88 139.838 50.7947 139.667 50.624C139.497 50.4427 139.411 50.2187 139.411 49.952C139.411 49.696 139.497 49.4827 139.667 49.312C139.838 49.1307 140.057 49.04 140.323 49.04C140.59 49.04 140.809 49.1307 140.979 49.312C141.15 49.4827 141.235 49.696 141.235 49.952C141.235 50.2187 141.15 50.4427 140.979 50.624C140.809 50.7947 140.59 50.88 140.323 50.88ZM148.541 60V55.568C148.541 54.992 148.36 54.5173 147.997 54.144C147.635 53.7707 147.165 53.584 146.589 53.584C146.205 53.584 145.864 53.6693 145.565 53.84C145.267 54.0107 145.032 54.2453 144.861 54.544C144.691 54.8427 144.605 55.184 144.605 55.568L144.013 55.232C144.013 54.656 144.141 54.144 144.397 53.696C144.653 53.248 145.011 52.896 145.469 52.64C145.928 52.3733 146.445 52.24 147.021 52.24C147.597 52.24 148.104 52.384 148.541 52.672C148.989 52.96 149.341 53.3387 149.597 53.808C149.853 54.2667 149.981 54.7573 149.981 55.28V60H148.541ZM143.165 60V52.4H144.605V60H143.165ZM155.083 63.344C154.304 63.344 153.611 63.2 153.003 62.912C152.406 62.624 151.926 62.2187 151.563 61.696L152.491 60.752C152.8 61.1467 153.168 61.4453 153.595 61.648C154.022 61.8613 154.528 61.968 155.115 61.968C155.894 61.968 156.507 61.76 156.955 61.344C157.414 60.9387 157.643 60.3893 157.643 59.696V57.808L157.899 56.096L157.643 54.4V52.4H159.083V59.696C159.083 60.4213 158.912 61.056 158.571 61.6C158.24 62.144 157.771 62.5707 157.163 62.88C156.566 63.1893 155.872 63.344 155.083 63.344ZM155.083 59.872C154.39 59.872 153.766 59.7067 153.211 59.376C152.667 59.0453 152.235 58.592 151.915 58.016C151.595 57.4293 151.435 56.7733 151.435 56.048C151.435 55.3227 151.595 54.6773 151.915 54.112C152.235 53.536 152.667 53.0827 153.211 52.752C153.766 52.4107 154.39 52.24 155.083 52.24C155.68 52.24 156.208 52.3573 156.667 52.592C157.126 52.8267 157.488 53.1573 157.755 53.584C158.032 54 158.182 54.4907 158.203 55.056V57.072C158.171 57.6267 158.016 58.1173 157.739 58.544C157.472 58.96 157.11 59.2853 156.651 59.52C156.192 59.7547 155.67 59.872 155.083 59.872ZM155.371 58.512C155.84 58.512 156.251 58.4107 156.603 58.208C156.966 58.0053 157.243 57.7227 157.435 57.36C157.627 56.9867 157.723 56.5547 157.723 56.064C157.723 55.5733 157.622 55.1467 157.419 54.784C157.227 54.4107 156.955 54.1227 156.603 53.92C156.251 53.7067 155.835 53.6 155.355 53.6C154.875 53.6 154.454 53.7067 154.091 53.92C153.728 54.1227 153.44 54.4107 153.227 54.784C153.024 55.1467 152.923 55.568 152.923 56.048C152.923 56.528 153.024 56.9547 153.227 57.328C153.44 57.7013 153.728 57.9947 154.091 58.208C154.464 58.4107 154.891 58.512 155.371 58.512ZM163.613 60.16C163.186 60.16 162.781 60.1067 162.397 60C162.023 59.8827 161.677 59.7227 161.357 59.52C161.037 59.3067 160.759 59.056 160.525 58.768L161.453 57.84C161.73 58.1813 162.05 58.4373 162.413 58.608C162.775 58.768 163.181 58.848 163.629 58.848C164.077 58.848 164.423 58.7733 164.669 58.624C164.914 58.464 165.037 58.2453 165.037 57.968C165.037 57.6907 164.935 57.4773 164.733 57.328C164.541 57.168 164.29 57.04 163.981 56.944C163.671 56.8373 163.341 56.736 162.989 56.64C162.647 56.5333 162.322 56.4 162.013 56.24C161.703 56.08 161.447 55.8613 161.245 55.584C161.053 55.3067 160.957 54.9387 160.957 54.48C160.957 54.0213 161.069 53.6267 161.293 53.296C161.517 52.9547 161.826 52.6933 162.221 52.512C162.626 52.3307 163.111 52.24 163.677 52.24C164.274 52.24 164.802 52.3467 165.261 52.56C165.73 52.7627 166.114 53.072 166.413 53.488L165.485 54.416C165.271 54.1387 165.005 53.9253 164.685 53.776C164.375 53.6267 164.023 53.552 163.629 53.552C163.213 53.552 162.893 53.6267 162.669 53.776C162.455 53.9147 162.349 54.112 162.349 54.368C162.349 54.624 162.445 54.8213 162.637 54.96C162.829 55.0987 163.079 55.216 163.389 55.312C163.709 55.408 164.039 55.5093 164.381 55.616C164.722 55.712 165.047 55.8453 165.357 56.016C165.666 56.1867 165.917 56.416 166.109 56.704C166.311 56.992 166.413 57.3707 166.413 57.84C166.413 58.5547 166.157 59.12 165.645 59.536C165.143 59.952 164.466 60.16 163.613 60.16Z" fill="black"/>
</g>
<defs>
<clipPath id="clip0_160_1572">
<rect width="273" height="75" fill="white"/>
</clipPath>
</defs>
</svg>
