<svg width="20" height="20" viewBox="0 0 20 20" fill="none" xmlns="http://www.w3.org/2000/svg">
<path d="M7.96631 15.6257C7.62464 15.6257 7.34131 15.3423 7.34131 15.0007V10.834C7.34131 10.4923 7.62464 10.209 7.96631 10.209C8.30798 10.209 8.59131 10.4923 8.59131 10.834V15.0007C8.59131 15.3423 8.30798 15.6257 7.96631 15.6257Z" fill="#292D32"/>
<path d="M9.99967 13.541H5.83301C5.49134 13.541 5.20801 13.2577 5.20801 12.916C5.20801 12.5743 5.49134 12.291 5.83301 12.291H9.99967C10.3413 12.291 10.6247 12.5743 10.6247 12.916C10.6247 13.2577 10.3413 13.541 9.99967 13.541Z" fill="#292D32"/>
<path d="M6.66699 4.79102C6.32533 4.79102 6.04199 4.50768 6.04199 4.16602V1.66602C6.04199 1.32435 6.32533 1.04102 6.66699 1.04102C7.00866 1.04102 7.29199 1.32435 7.29199 1.66602V4.16602C7.29199 4.50768 7.00866 4.79102 6.66699 4.79102Z" fill="#292D32"/>
<path d="M13.333 4.79102C12.9913 4.79102 12.708 4.50768 12.708 4.16602V1.66602C12.708 1.32435 12.9913 1.04102 13.333 1.04102C13.6747 1.04102 13.958 1.32435 13.958 1.66602V4.16602C13.958 4.50768 13.6747 4.79102 13.333 4.79102Z" fill="#292D32"/>
<path d="M7.37501 19.0079C5.31668 19.0079 3.95835 18.5579 3.10835 17.5912C2.12501 16.4829 1.96668 14.8246 1.93335 13.3496L1.82501 8.20791C1.74168 4.26624 3.05001 2.62458 6.46668 2.36624L13.1667 2.23291C13.1833 2.23291 13.1917 2.23291 13.2 2.23291C16.625 2.34958 17.9917 3.93291 18.075 7.88291L18.175 13.0246C18.2083 14.4996 18.1083 16.1662 17.175 17.3079C16.325 18.3496 14.8917 18.8579 12.6667 18.9079L7.66668 19.0079C7.56668 19.0079 7.46668 19.0079 7.37501 19.0079ZM13.1667 3.47458L6.52501 3.60791C4.19168 3.79124 3.00001 4.54124 3.07501 8.18291L3.18335 13.3246C3.21668 15.0912 3.47501 16.1246 4.04168 16.7662C4.67501 17.4829 5.81668 17.7996 7.65001 17.7579L12.65 17.6579C14.475 17.6246 15.6083 17.2579 16.2167 16.5162C16.7583 15.8579 16.975 14.8162 16.9333 13.0496L16.8333 7.90791C16.75 4.27458 15.5333 3.55791 13.1667 3.47458Z" fill="#292D32"/>
</svg>
