<svg width="20" height="20" viewBox="0 0 20 20" fill="none" xmlns="http://www.w3.org/2000/svg">
<path d="M9.99968 18.9666C9.09135 18.9666 8.19136 18.6999 7.48302 18.1749L3.89967 15.4999C2.94967 14.7916 2.20801 13.3166 2.20801 12.1332V5.94158C2.20801 4.65825 3.14969 3.29158 4.35802 2.84158L8.51635 1.28325C9.34135 0.974919 10.6414 0.974919 11.4664 1.28325L15.633 2.84158C16.8414 3.29158 17.783 4.65825 17.783 5.94158V12.1332C17.783 13.3166 17.0413 14.7916 16.0913 15.4999L12.508 18.1749C11.808 18.6999 10.908 18.9666 9.99968 18.9666ZM8.95801 2.44991L4.79969 4.00824C4.08302 4.27491 3.45801 5.17492 3.45801 5.94158V12.1332C3.45801 12.9249 4.01635 14.0332 4.64135 14.4999L8.22468 17.1749C9.18301 17.8916 10.808 17.8916 11.7663 17.1749L15.3497 14.4999C15.983 14.0249 16.533 12.9166 16.533 12.1332V5.94158C16.533 5.18325 15.908 4.28324 15.1914 4.00824L11.033 2.44991C10.483 2.24158 9.51635 2.24158 8.95801 2.44991Z" fill="#7A797A"/>
<path d="M9.9996 9.72506C9.98293 9.72506 9.96626 9.72506 9.94126 9.72506C8.73293 9.69172 7.84961 8.76672 7.84961 7.64172C7.84961 6.49172 8.79126 5.55005 9.94126 5.55005C11.0913 5.55005 12.0329 6.49172 12.0329 7.64172C12.0246 8.77506 11.1413 9.69171 10.0163 9.73337C10.0079 9.72504 10.0079 9.72506 9.9996 9.72506ZM9.94126 6.80005C9.47459 6.80005 9.09961 7.17506 9.09961 7.64172C9.09961 8.10006 9.45794 8.46671 9.90794 8.48337C9.90794 8.48337 9.9496 8.48337 9.9996 8.48337C10.4413 8.45837 10.7829 8.09172 10.7829 7.64172C10.7913 7.17506 10.4079 6.80005 9.94126 6.80005Z" fill="#7A797A"/>
<path d="M10 14.4585C9.28334 14.4585 8.55835 14.2668 8.00002 13.8918C7.44168 13.5251 7.125 12.9835 7.125 12.4085C7.125 11.8335 7.44168 11.2918 8.00002 10.9168C9.12502 10.1668 10.8833 10.1751 12 10.9168C12.5583 11.2835 12.875 11.8251 12.875 12.4001C12.875 12.9751 12.5583 13.5168 12 13.8918C11.4417 14.2668 10.7167 14.4585 10 14.4585ZM8.69167 11.9501C8.48334 12.0835 8.36667 12.2501 8.375 12.4001C8.375 12.5501 8.49167 12.7168 8.69167 12.8501C9.39167 13.3168 10.6083 13.3168 11.3083 12.8501C11.5167 12.7168 11.6333 12.5501 11.6333 12.4001C11.6333 12.2501 11.5167 12.0835 11.3167 11.9501C10.6167 11.4918 9.39167 11.4918 8.69167 11.9501Z" fill="#7A797A"/>
</svg>
