<svg width="94" height="102" viewBox="0 0 94 102" fill="none" xmlns="http://www.w3.org/2000/svg">
<path d="M0.969727 102H25.0725L27.0719 96.6178C27.7802 94.7112 29.2295 93.1782 31.0827 92.3398C32.8285 91.5499 35.1776 90.1163 37.4551 87.5601C41.887 82.586 44.2387 77.2501 44.2387 77.2501L29.3014 77.1768C29.3014 77.1768 30.6457 68.8221 23.2217 57.7257C22.4271 56.5381 22.0656 55.1127 22.1894 53.6891L22.8932 45.5963C22.8932 45.5963 27.9381 39.9589 24.8428 32.9649C24.8428 32.9649 21.883 28.8671 20.7088 30.3673C20.7088 30.3673 11.7682 51.6557 10.9542 54.8211C10.1401 57.9865 9.05479 59.9761 10.1401 69.9244C10.4275 72.558 10.5307 74.7544 10.5271 76.5603C10.5202 80.0272 9.7457 83.4492 8.26313 86.5832L0.969727 102Z" fill="#F2C7AC"/>
<path opacity="0.2" d="M23.4501 88.1654C21.2128 85.6817 18.105 86.0738 14.8367 84.9409C11.5685 83.8081 10.5202 75.6401 10.5202 75.6401L10.5199 75.6389C10.5251 75.9472 10.5276 76.2465 10.527 76.5348C10.5201 80.0017 9.74564 83.4236 8.26307 86.5577L0.969727 101.975H25.0725L27.0719 96.5923C27.7802 94.6856 29.2295 93.1527 31.0827 92.3143C32.5685 91.6421 34.4912 90.503 36.435 88.6031C29.7964 91.3933 25.6873 90.6489 23.4501 88.1654Z" fill="#FFC0BB"/>
<path d="M76.1733 32.4859C76.0885 32.1166 75.7581 31.8412 75.363 31.8412C75.2904 31.8412 75.2202 31.8505 75.1531 31.8679C74.9582 31.451 74.535 31.1621 74.0444 31.1621C73.9175 31.1621 73.7952 31.1814 73.6801 31.2173C73.416 30.78 72.9362 30.4875 72.388 30.4875C71.7358 30.4875 71.1803 30.9014 70.9698 31.4809C70.8207 31.3978 70.6492 31.3503 70.4665 31.3503C69.8949 31.3503 69.4314 31.8137 69.4314 32.3854C69.4314 32.4192 69.4331 32.4527 69.4363 32.4858L76.1733 32.4859Z" fill="#EDFDFC"/>
<path d="M66.4887 8.12943C66.2672 7.16547 65.4044 6.44627 64.3731 6.44627C64.1838 6.44627 64.0001 6.47064 63.8251 6.51615C63.316 5.4278 62.2115 4.67362 60.9305 4.67362C60.5993 4.67362 60.2799 4.72403 59.9796 4.81757C59.29 3.67579 58.0372 2.91235 56.606 2.91235C54.9031 2.91235 53.4529 3.99299 52.9033 5.50578C52.5143 5.28893 52.0665 5.16492 51.5895 5.16492C50.0969 5.16492 48.887 6.37478 48.887 7.86719C48.887 7.95572 48.8915 8.04309 48.8999 8.12943H66.4887Z" fill="#EDFDFC"/>
<path d="M57.7473 16.1424C57.7473 16.1424 62.8526 12.7258 64.0183 14.9768C65.184 17.2277 57.3855 25.1928 57.3855 25.1928L57.7473 16.1424Z" fill="#EAA0A0"/>
<path d="M57.747 31.0089C57.747 31.0089 62.8523 27.5923 64.018 29.8432C65.1838 32.0941 57.3853 40.0592 57.3853 40.0592L57.747 31.0089Z" fill="#EAA0A0"/>
<path d="M57.747 41.1544C57.747 41.1544 62.8523 37.7378 64.018 39.9887C65.1838 42.2396 57.3853 50.2047 57.3853 50.2047L57.747 41.1544Z" fill="#EAA0A0"/>
<path d="M54.1766 12.3032H26.1499C24.0628 12.3032 22.3706 13.9949 22.3706 16.0821V62.7169V73.3563C22.3706 75.4621 24.0826 77.1353 26.1499 77.1353H54.1766C56.2615 77.1353 57.9559 75.4458 57.9559 73.3563V26.7216V16.0821C57.956 13.9763 56.2439 12.3032 54.1766 12.3032Z" fill="black"/>
<path opacity="0.2" d="M24.9197 60.5082C24.9197 60.5082 19.8504 72.9165 20.3422 75.2628C20.834 77.609 23.9102 80.7463 31.4578 79.7005C39.0054 78.6548 44.2222 77.2565 44.2222 77.2565C44.2222 77.2565 44.5377 60.5105 44.2222 59.6613C43.9068 58.8121 30.3362 52.7844 29.8023 52.7844C29.2683 52.7844 24.9197 60.5082 24.9197 60.5082Z" fill="#FFC0BB"/>
<path d="M56.1507 17.4805H24.2295V72.0118H56.1507V17.4805Z" fill="#EAE4ED"/>
<path d="M46.6846 15.7527H33.7086C33.5199 15.7527 33.3669 15.5997 33.3669 15.411C33.3669 15.2223 33.5199 15.0693 33.7086 15.0693H46.6846C46.8733 15.0693 47.0262 15.2223 47.0262 15.411C47.0263 15.5997 46.8733 15.7527 46.6846 15.7527Z" fill="white"/>
<path d="M21.7252 50.48C21.7252 50.48 21.9178 51.1959 22.3533 51.5481L22.8709 45.5963C22.8709 45.5963 26.5821 41.4493 25.6854 35.8561C25.3785 33.9414 24.4261 32.1793 22.9695 30.8989C22.138 30.1681 21.2247 29.6798 20.6865 30.3673C20.6865 30.3673 16.4821 40.3784 13.5771 47.691L21.7252 50.48Z" fill="#FFC0BB"/>
<path d="M56.1507 68.8113H24.2295V72.0369H56.1507V68.8113Z" fill="#0F4B7F"/>
<path d="M56.1507 17.4805H24.2295V20.3744H56.1507V17.4805Z" fill="#0F4B7F"/>
<path d="M21.4651 36.2472C22.6268 35.7129 23.2334 32.6905 23.4505 31.3319C22.5182 30.3941 21.3488 29.5501 20.7091 30.3673C20.7091 30.3673 19.7834 32.5718 18.5005 35.6673C19.3776 36.1555 20.5965 36.6468 21.4651 36.2472Z" fill="#EAA0A0"/>
<path d="M50.718 53.3928C50.718 53.3928 46.4067 53.7546 46.2559 54.9002C46.1052 56.0458 46.4369 58.0656 50.507 58.4575H54.7228C54.7228 58.4575 53.4615 54.9605 53.5218 54.8399C53.5821 54.7193 50.718 53.3928 50.718 53.3928Z" fill="#EFADAB"/>
<path d="M43.8286 70.4989C43.2446 70.8087 43.0414 71.5467 43.373 72.1185C45.3569 75.5399 53.2457 89.1369 53.9568 90.2429C54.7709 91.5091 56.7607 94.4935 63.3634 96.0311C69.966 97.5686 72.6794 102 72.6794 102H93.03C93.03 102 88.2363 94.4031 84.2567 74.6874C84.2567 74.6874 81.1814 58.3179 75.3928 58.8605C75.3928 58.8605 71.8654 55.1525 68.4284 55.876C68.4284 55.876 61.9163 51.9872 58.208 51.9872L49.3006 41.4611C48.419 40.4194 46.8649 40.2152 45.7811 41.0445C45.4325 41.3113 45.1666 41.6638 45.0931 42.1293C44.8217 43.8476 47.0829 48.1887 50.7008 53.4342C54.3187 58.6797 63.2729 75.3205 59.3837 82.6461C59.3837 82.6461 55.4041 79.6616 51.9671 74.8683C49.0888 70.8543 45.7033 69.5041 43.8286 70.4989Z" fill="#F2C7AC"/>
<path d="M58.2509 51.9846C59.4328 52.9963 60.5405 54.0936 61.5868 55.2466C62.6286 56.3801 63.6272 57.622 64.5341 58.8742C65.3677 60.0282 66.3446 61.5827 66.9658 62.8752C67.8085 64.5837 68.1859 65.8507 68.4361 67.3062L68.4096 67.3116C68.0904 65.7974 67.4927 64.3523 66.7766 62.9733C66.2828 62.0026 65.3118 60.3964 64.3138 59.0323C63.4131 57.7699 62.4399 56.5602 61.4255 55.3871C60.4698 54.2848 59.268 52.9954 58.2324 52.0044L58.2509 51.9846Z" fill="#EAA0A0"/>
<path d="M68.3411 55.8545C69.3028 56.3465 70.1603 57.033 70.9183 57.8087C72.3435 59.2447 73.5112 61.2144 74.0937 63.4306C74.3273 64.4148 74.4784 65.0815 74.5028 66.6382L74.4758 66.6403C74.3866 65.574 74.1918 64.5168 73.8893 63.4912C73.2347 61.3623 72.207 59.5411 70.7606 57.9533C70.0794 57.2077 69.1893 56.4036 68.3276 55.878L68.3411 55.8545Z" fill="#EAA0A0"/>
<path d="M75.3227 58.7668C76.1732 59.4098 77.0307 60.545 77.4483 61.3143C78.4121 62.9701 78.868 64.7283 78.9476 66.6096L78.9208 66.6133C78.5586 64.5177 78.2021 63.328 77.2237 61.4367C76.9048 60.8 76.0822 59.5507 75.3071 58.7834L75.3227 58.7668Z" fill="#EAA0A0"/>
<path d="M47.936 74.6994C48.1165 73.7839 47.0495 72.3318 46.0811 71.2363C45.4765 70.5524 44.5221 70.2967 43.6826 70.5828C43.2136 70.9302 43.0706 71.588 43.3726 72.1089C43.9058 73.0283 44.8653 74.6827 45.9974 76.6318C46.845 76.2001 47.769 75.5469 47.936 74.6994Z" fill="#EAA0A0"/>
<path d="M48.7572 45.5816C49.2717 45.4785 51.6062 44.7024 51.4632 44.2769L49.1607 41.5559C48.7035 41.0156 48.0653 40.7013 47.4057 40.6389H47.4056C47.402 40.6386 47.3983 40.6382 47.3947 40.6378C47.376 40.6361 47.3337 40.633 47.2747 40.6331C46.966 40.6334 46.2058 40.7213 46.0386 41.5571C45.8735 42.3826 47.24 44.3889 47.8427 45.2232C48.0511 45.5117 48.4084 45.6515 48.7572 45.5816Z" fill="#EAA0A0"/>
<path d="M7.92959 87.7784C10.48 89.3451 18.6905 94.03 27.1804 95.0286C27.6777 95.0871 28.0275 95.5429 27.8804 95.9368L26.3973 99.909C26.2992 100.172 26.0037 100.325 25.672 100.285C23.1699 99.9812 12.8465 98.4273 5.58289 92.8088C5.33568 92.6175 5.23139 92.3276 5.32385 92.0799L6.83747 88.0261C6.97989 87.6446 7.51437 87.5233 7.92959 87.7784Z" fill="#473B1E"/>
<path d="M7.23547 91.5853L7.09421 91.5326C6.97655 91.4887 6.91676 91.3577 6.96074 91.2401L7.4596 89.904C7.50352 89.7864 7.63448 89.7266 7.75214 89.7705L7.8934 89.8232C8.01106 89.8671 8.07079 89.9981 8.02688 90.1158L7.52801 91.4518C7.48416 91.5695 7.35313 91.6293 7.23547 91.5853Z" fill="#002A24"/>
<path d="M8.74548 92.5375L8.60423 92.4848C8.48657 92.4409 8.42677 92.3099 8.47075 92.1922L8.96955 90.8562C9.01346 90.7385 9.14449 90.6787 9.26209 90.7227L9.40334 90.7754C9.521 90.8193 9.5808 90.9503 9.53688 91.0679L9.03802 92.404C8.99411 92.5216 8.86314 92.5814 8.74548 92.5375Z" fill="#002A24"/>
<path d="M10.3002 93.4442L10.1589 93.3915C10.0413 93.3476 9.98149 93.2166 10.0254 93.0989L10.5243 91.7629C10.5682 91.6453 10.6991 91.5855 10.8168 91.6294L10.9581 91.6821C11.0757 91.726 11.1355 91.857 11.0915 91.9747L10.5927 93.3107C10.5488 93.4284 10.4179 93.4881 10.3002 93.4442Z" fill="#002A24"/>
<path d="M11.8553 94.2443L11.7141 94.1916C11.5964 94.1477 11.5367 94.0167 11.5806 93.899L12.0794 92.563C12.1234 92.4453 12.2543 92.3855 12.372 92.4295L12.5132 92.4822C12.6309 92.5261 12.6907 92.6571 12.6468 92.7747L12.1479 94.1108C12.1039 94.2285 11.973 94.2882 11.8553 94.2443Z" fill="#002A24"/>
<path d="M13.4154 95.1004L13.2742 95.0477C13.1565 95.0038 13.0967 94.8728 13.1406 94.7552L13.6395 93.4192C13.6834 93.3016 13.8144 93.2418 13.9321 93.2856L14.0734 93.3383C14.191 93.3822 14.2508 93.5133 14.2068 93.6309L13.708 94.967C13.6641 95.0846 13.5331 95.1444 13.4154 95.1004Z" fill="#002A24"/>
<path d="M15.0209 95.7989L14.8796 95.7462C14.762 95.7023 14.7022 95.5712 14.7461 95.4537L15.245 94.1176C15.2889 94 15.4198 93.9402 15.5375 93.9841L15.6788 94.0369C15.7964 94.0807 15.8561 94.2117 15.8122 94.3294L15.3134 95.6654C15.2695 95.7831 15.1385 95.8429 15.0209 95.7989Z" fill="#002A24"/>
<path d="M16.6774 96.4073L16.5361 96.3546C16.4185 96.3107 16.3587 96.1797 16.4026 96.0621L16.9014 94.726C16.9453 94.6084 17.0764 94.5487 17.194 94.5925L17.3352 94.6452C17.4529 94.6891 17.5127 94.8202 17.4687 94.9378L16.9698 96.2738C16.926 96.3915 16.795 96.4513 16.6774 96.4073Z" fill="#002A24"/>
<path d="M18.339 96.9596L18.1978 96.9069C18.0801 96.8629 18.0203 96.732 18.0642 96.6143L18.5631 95.2783C18.607 95.1607 18.738 95.1009 18.8556 95.1448L18.9969 95.1975C19.1145 95.2414 19.1743 95.3724 19.1304 95.4901L18.6315 96.8261C18.5876 96.9438 18.4567 97.0035 18.339 96.9596Z" fill="#002A24"/>
<path d="M20.0965 97.3087L19.9553 97.256C19.8376 97.2121 19.7778 97.0811 19.8218 96.9635L20.3206 95.6274C20.3645 95.5098 20.4956 95.45 20.6132 95.4939L20.7544 95.5467C20.8721 95.5905 20.9318 95.7215 20.8879 95.8392L20.389 97.1752C20.3452 97.2929 20.2141 97.3526 20.0965 97.3087Z" fill="#002A24"/>
<path d="M21.8034 97.7596L21.6621 97.7069C21.5444 97.663 21.4846 97.532 21.5286 97.4144L22.0275 96.0783C22.0714 95.9607 22.2024 95.9009 22.3201 95.9448L22.4613 95.9975C22.579 96.0415 22.6388 96.1724 22.5949 96.2901L22.096 97.6261C22.052 97.7438 21.921 97.8036 21.8034 97.7596Z" fill="#002A24"/>
<path d="M23.5609 98.0636L23.4196 98.0109C23.302 97.967 23.2422 97.836 23.2862 97.7183L23.785 96.3823C23.8289 96.2646 23.9599 96.2048 24.0776 96.2488L24.2188 96.3015C24.3365 96.3454 24.3963 96.4765 24.3523 96.5941L23.8534 97.9301C23.8095 98.0478 23.6785 98.1076 23.5609 98.0636Z" fill="#002A24"/>
<path d="M25.3187 98.3624L25.1775 98.3097C25.0598 98.2658 25 98.1348 25.044 98.0171L25.5429 96.6811C25.5868 96.5635 25.7177 96.5037 25.8355 96.5476L25.9767 96.6003C26.0944 96.6442 26.1542 96.7753 26.1102 96.8929L25.6113 98.2289C25.5673 98.3466 25.4364 98.4063 25.3187 98.3624Z" fill="#002A24"/>
<path d="M12.9614 96.9514L12.9684 96.9327C12.9414 96.9293 12.9145 96.923 12.8882 96.9132L10.879 96.163C10.6806 96.089 10.5844 95.8545 10.6644 95.6401L12.476 90.788C12.556 90.5737 12.7825 90.4596 12.9808 90.5336L14.99 91.2837C15.1077 91.3276 15.189 91.4281 15.2194 91.5473C15.377 91.6162 15.5358 91.685 15.6966 91.7535C15.7504 91.3458 15.5409 90.9493 15.167 90.8097L13.1578 90.0596C12.7175 89.8953 12.2148 90.1485 12.0372 90.6243L10.2256 95.4764C10.048 95.952 10.2617 96.4728 10.702 96.6372L12.7112 97.3872C13.0126 97.4997 13.3431 97.4164 13.5787 97.2002C13.3732 97.1192 13.1675 97.0365 12.9614 96.9514Z" fill="#EDFDFC"/>
<path d="M12.511 93.1139L11.637 92.7876C11.4803 92.7292 11.3021 92.8189 11.2388 92.9882C11.1756 93.1574 11.2514 93.3421 11.4081 93.4006L12.2821 93.7268L12.511 93.1139Z" fill="#B7D972"/>
<path opacity="0.2" d="M72.6681 101.979H93.0187C93.0187 101.979 89.8758 96.9976 86.567 84.6355C85.1149 93.738 77.1039 93.2131 73.9247 93.7181C70.2643 94.2995 56.0546 91.3371 54.0637 90.4039C54.9492 91.755 57.0481 94.5419 63.352 96.0098C69.9547 97.5473 72.6681 101.979 72.6681 101.979Z" fill="#FFC0BB"/>
<path opacity="0.2" d="M51.7539 55.0491C55.744 61.4599 62.9029 76.1858 59.3609 82.6106L61.7117 84.9308C61.7117 84.9308 67.6514 78.3513 58.1996 63.8415C56.0001 60.4651 53.8139 57.5441 51.7539 55.0491Z" fill="#FFC0BB"/>
<path d="M64.1082 26.6316C64.2836 25.8682 64.9668 25.2986 65.7836 25.2986C65.9336 25.2986 66.079 25.3179 66.2177 25.3539C66.6208 24.492 67.4956 23.8947 68.5101 23.8947C68.7724 23.8947 69.0254 23.9346 69.2632 24.0087C69.8093 23.1044 70.8016 22.4998 71.9351 22.4998C73.2837 22.4998 74.4323 23.3556 74.8676 24.5537C75.1757 24.382 75.5303 24.2837 75.908 24.2837C77.0902 24.2837 78.0485 25.2419 78.0485 26.4239C78.0485 26.494 78.0449 26.5632 78.0382 26.6316L64.1082 26.6316Z" fill="#EDFDFC"/>
<path d="M18.2471 2.95686C18.3726 2.41046 18.8616 2.00287 19.4461 2.00287C19.5534 2.00287 19.6574 2.01663 19.7567 2.04247C20.0452 1.42562 20.6712 0.99822 21.3973 0.99822C21.5849 0.99822 21.7659 1.02676 21.9362 1.0798C22.327 0.432668 23.0371 0 23.8482 0C24.8133 0 25.6353 0.612485 25.9468 1.46991C26.1673 1.34699 26.4211 1.27672 26.6914 1.27672C27.5373 1.27672 28.2231 1.96243 28.2231 2.80828C28.2231 2.85843 28.2205 2.908 28.2158 2.95692H18.2471V2.95686Z" fill="#EDFDFC"/>
<path d="M70.9743 48.2158C70.9743 48.2158 70.7647 50.2828 69.1333 50.4259C70.7647 50.5689 70.9743 52.636 70.9743 52.636C70.9743 52.636 71.184 50.5689 72.8153 50.4259C71.184 50.2828 70.9743 48.2158 70.9743 48.2158Z" fill="#EDFDFC"/>
<path d="M68.0935 15.4692C68.0935 15.4692 67.943 16.9525 66.7725 17.0551C67.943 17.1577 68.0935 18.6409 68.0935 18.6409C68.0935 18.6409 68.2439 17.1577 69.4144 17.0551C68.2439 16.9525 68.0935 15.4692 68.0935 15.4692Z" fill="#EDFDFC"/>
<path d="M17.3707 7.53174C17.3707 7.53174 17.2761 8.46412 16.5403 8.52861C17.2761 8.59309 17.3707 9.52541 17.3707 9.52541C17.3707 9.52541 17.4652 8.59309 18.201 8.52861C17.4652 8.46412 17.3707 7.53174 17.3707 7.53174Z" fill="#EDFDFC"/>
<path d="M11.4016 32.8987C11.4016 32.8987 11.1919 34.9658 9.56055 35.1088C11.1919 35.2518 11.4016 37.3189 11.4016 37.3189C11.4016 37.3189 11.6112 35.2518 13.2426 35.1088C11.6113 34.9658 11.4016 32.8987 11.4016 32.8987Z" fill="#EDFDFC"/>
<path d="M75.2744 42.4924C75.2744 42.4924 75.1358 43.8599 74.0566 43.9544C75.1358 44.0491 75.2744 45.4164 75.2744 45.4164C75.2744 45.4164 75.4131 44.0491 76.4923 43.9544C75.4131 43.8599 75.2744 42.4924 75.2744 42.4924Z" fill="#EDFDFC"/>
<path d="M71.8592 11.5032C71.8592 11.5032 71.7835 12.2491 71.1948 12.3007C71.7835 12.3524 71.8592 13.0983 71.8592 13.0983C71.8592 13.0983 71.9349 12.3523 72.5235 12.3007C71.9349 12.2491 71.8592 11.5032 71.8592 11.5032Z" fill="#EDFDFC"/>
<path d="M14.795 28.0764C14.795 28.0764 14.6563 29.4438 13.5771 29.5385C14.6563 29.6331 14.795 31.0005 14.795 31.0005C14.795 31.0005 14.9337 29.6331 16.0129 29.5385C14.9337 29.4438 14.795 28.0764 14.795 28.0764Z" fill="#EDFDFC"/>
<path d="M22.653 5.52612C22.653 5.52612 22.5804 6.24147 22.0159 6.29091C22.5804 6.34041 22.653 7.05569 22.653 7.05569C22.653 7.05569 22.7255 6.34041 23.2901 6.29091C22.7256 6.24147 22.653 5.52612 22.653 5.52612Z" fill="white"/>
<path d="M68.9739 38.3743C68.9739 38.3743 68.9118 38.9861 68.429 39.0284C68.9118 39.0707 68.9739 39.6826 68.9739 39.6826C68.9739 39.6826 69.036 39.0707 69.5187 39.0284C69.036 38.9861 68.9739 38.3743 68.9739 38.3743Z" fill="#EDFDFC"/>
<path d="M12.8152 40.9824C12.8152 40.9824 12.7531 41.5943 12.2703 41.6366C12.7531 41.6789 12.8152 42.2907 12.8152 42.2907C12.8152 42.2907 12.8772 41.6789 13.3601 41.6366C12.8772 41.5943 12.8152 40.9824 12.8152 40.9824Z" fill="white"/>
<path d="M18.5177 12.5061C18.5177 12.5061 18.3952 13.7144 17.4417 13.7979C18.3952 13.8815 18.5177 15.0898 18.5177 15.0898C18.5177 15.0898 18.6403 13.8815 19.5939 13.7979C18.6403 13.7144 18.5177 12.5061 18.5177 12.5061Z" fill="#EDFDFC"/>
</svg>
