<svg width="24" height="24" viewBox="0 0 24 24" fill="none" xmlns="http://www.w3.org/2000/svg">
<g clip-path="url(#clip0_434_2471)">
<path fill-rule="evenodd" clip-rule="evenodd" d="M19.725 0H4.275C1.91719 0 0 1.91719 0 4.275V19.725C0 22.0828 1.91719 24 4.275 24H19.725C22.0828 24 24 22.0828 24 19.725V4.275C24 1.91719 22.0828 0 19.725 0Z" fill="#EF5350"/>
<path fill-rule="evenodd" clip-rule="evenodd" d="M5.92969 15.1639H7.92188C8.12812 15.1639 8.29688 15.3326 8.29688 15.5389V17.0389L10.1672 15.267C10.2375 15.2014 10.3312 15.1639 10.425 15.1639H18.0703V6.46387H5.92969V15.1639Z" fill="#D63633"/>
<path fill-rule="evenodd" clip-rule="evenodd" d="M18.7594 5.88281L24 11.1234V19.725C24 22.0828 22.0828 24 19.725 24H13.6453L7.93127 18.2859C8.02034 18.2812 8.11409 18.2437 8.17971 18.1828L10.575 15.9141H18.4453C18.6516 15.9141 18.8203 15.7453 18.8203 15.5391V6.08906C18.8203 6.01406 18.7969 5.94375 18.7594 5.88281Z" fill="#D63633"/>
<path fill-rule="evenodd" clip-rule="evenodd" d="M12 12.8764C11.2453 12.8764 10.6266 12.2623 10.6266 11.5029V10.1248C10.6266 9.37012 11.2406 8.75137 12 8.75137C12.7547 8.75137 13.3734 9.36543 13.3734 10.1248V11.5029C13.3734 12.2576 12.7547 12.8764 12 12.8764ZM16.4156 12.6373C16.6781 12.4451 16.8516 12.1592 16.8984 11.8357C16.9641 11.3857 16.8656 11.0436 16.6031 10.8092C16.3875 10.617 16.1109 10.5467 15.8625 10.4811C15.4031 10.3639 15.2859 10.2982 15.2578 10.0264C15.2297 9.76855 15.4172 9.53418 15.675 9.50605C15.8672 9.48262 16.0594 9.58574 16.1484 9.75918C16.2422 9.94199 16.4672 10.017 16.6547 9.92324C16.8375 9.82949 16.9125 9.60449 16.8187 9.41699C16.5891 8.96699 16.0969 8.70449 15.5953 8.76074C14.925 8.83574 14.4422 9.44512 14.5172 10.1107C14.6063 10.9311 15.2531 11.0998 15.6797 11.2076C16.1438 11.3295 16.2187 11.3576 16.1625 11.7232C16.1437 11.8451 16.0781 11.9576 15.9797 12.0326C15.8766 12.1076 15.7547 12.1404 15.6281 12.117C15.4922 12.0982 15.375 12.0186 15.3 11.9014C15.1922 11.7232 14.9578 11.6717 14.7844 11.7795C14.6062 11.8873 14.5547 12.1217 14.6625 12.2951C14.85 12.5998 15.1641 12.8061 15.5156 12.8576C15.5766 12.867 15.6422 12.8717 15.7031 12.8717C15.9516 12.8764 16.2047 12.792 16.4156 12.6373ZM8.99531 12.6373C9.25781 12.4451 9.43125 12.1592 9.47812 11.8357C9.54375 11.3857 9.44531 11.0436 9.18281 10.8092C8.96719 10.617 8.68594 10.5467 8.44219 10.4811C7.98281 10.3639 7.86563 10.2982 7.83281 10.0264C7.80469 9.76855 7.99219 9.53418 8.25 9.50605C8.44219 9.48262 8.63438 9.58574 8.72344 9.75918C8.81719 9.94199 9.04219 10.017 9.22969 9.92324C9.4125 9.82949 9.4875 9.60449 9.39375 9.41699C9.16406 8.96699 8.67188 8.70449 8.17031 8.76074C7.5 8.83574 7.01719 9.44512 7.09219 10.1107C7.18594 10.9311 7.82812 11.0951 8.25937 11.2076C8.72344 11.3295 8.79844 11.3576 8.74219 11.7232C8.72344 11.8498 8.65781 11.9576 8.55469 12.0326C8.45156 12.1076 8.32969 12.1357 8.20312 12.117C8.06719 12.0982 7.94531 12.0186 7.875 11.9014C7.76719 11.7232 7.53281 11.6717 7.35938 11.7795C7.18125 11.8873 7.12969 12.1217 7.2375 12.2951C7.425 12.5998 7.73906 12.8061 8.09063 12.8576C8.15156 12.867 8.21719 12.8717 8.27813 12.8717C8.53594 12.8764 8.78437 12.792 8.99531 12.6373ZM7.92188 18.2857C7.87031 18.2857 7.82344 18.2764 7.77188 18.2529C7.70497 18.2229 7.64816 18.1742 7.60825 18.1127C7.56834 18.0511 7.54703 17.9794 7.54688 17.9061V15.9092H5.55469C5.34844 15.9092 5.17969 15.7404 5.17969 15.5342V6.08887C5.17969 5.88262 5.34844 5.71387 5.55469 5.71387H18.4453C18.6516 5.71387 18.8203 5.88262 18.8203 6.08887V15.5389C18.8203 15.7451 18.6516 15.9139 18.4453 15.9139H10.575L8.17969 18.1826C8.10938 18.2482 8.01562 18.2857 7.92188 18.2857ZM5.92969 15.1639H7.92188C8.12812 15.1639 8.29688 15.3326 8.29688 15.5389V17.0389L10.1672 15.267C10.2375 15.2014 10.3312 15.1639 10.425 15.1639H18.0703V6.46387H5.92969V15.1639ZM12 9.50137C11.6578 9.50137 11.3766 9.77793 11.3766 10.1248V11.5029C11.3766 11.8451 11.6531 12.1264 12 12.1264C12.3422 12.1264 12.6234 11.8498 12.6234 11.5029V10.1248C12.6234 9.78262 12.3422 9.50137 12 9.50137Z" fill="white"/>
</g>
<defs>
<clipPath id="clip0_434_2471">
<rect width="24" height="24" fill="white"/>
</clipPath>
</defs>
</svg>
