<svg width="20" height="20" viewBox="0 0 20 20" fill="none" xmlns="http://www.w3.org/2000/svg">
<path d="M10.0001 11.6667H10.8335C11.7501 11.6667 12.5001 10.9167 12.5001 10.0001V1.66675H5.00012C3.75012 1.66675 2.65846 2.3584 2.0918 3.37507" stroke="#676767" stroke-width="1.5" stroke-linecap="round" stroke-linejoin="round"/>
<path d="M1.66699 14.1667C1.66699 15.5501 2.78366 16.6667 4.16699 16.6667H5.00033C5.00033 15.7501 5.75033 15.0001 6.66699 15.0001C7.58366 15.0001 8.33366 15.7501 8.33366 16.6667H11.667C11.667 15.7501 12.417 15.0001 13.3337 15.0001C14.2503 15.0001 15.0003 15.7501 15.0003 16.6667H15.8337C17.217 16.6667 18.3337 15.5501 18.3337 14.1667V11.6667H15.8337C15.3753 11.6667 15.0003 11.2917 15.0003 10.8334V8.33341C15.0003 7.87508 15.3753 7.50008 15.8337 7.50008H16.9086L15.4837 5.00842C15.1837 4.49176 14.6337 4.16675 14.0337 4.16675H12.5003V10.0001C12.5003 10.9167 11.7503 11.6667 10.8337 11.6667H10.0003" stroke="#676767" stroke-width="1.5" stroke-linecap="round" stroke-linejoin="round"/>
<path d="M6.66667 18.3333C7.58714 18.3333 8.33333 17.5871 8.33333 16.6667C8.33333 15.7462 7.58714 15 6.66667 15C5.74619 15 5 15.7462 5 16.6667C5 17.5871 5.74619 18.3333 6.66667 18.3333Z" stroke="#676767" stroke-width="1.5" stroke-linecap="round" stroke-linejoin="round"/>
<path d="M13.3337 18.3333C14.2541 18.3333 15.0003 17.5871 15.0003 16.6667C15.0003 15.7462 14.2541 15 13.3337 15C12.4132 15 11.667 15.7462 11.667 16.6667C11.667 17.5871 12.4132 18.3333 13.3337 18.3333Z" stroke="#676767" stroke-width="1.5" stroke-linecap="round" stroke-linejoin="round"/>
<path d="M18.3333 10V11.6667H15.8333C15.375 11.6667 15 11.2917 15 10.8333V8.33333C15 7.875 15.375 7.5 15.8333 7.5H16.9083L18.3333 10Z" stroke="#676767" stroke-width="1.5" stroke-linecap="round" stroke-linejoin="round"/>
<path d="M1.66699 6.66675H6.66699" stroke="#676767" stroke-width="1.5" stroke-linecap="round" stroke-linejoin="round"/>
<path d="M1.66699 9.16675H5.00033" stroke="#676767" stroke-width="1.5" stroke-linecap="round" stroke-linejoin="round"/>
<path d="M1.66699 11.6667H3.33366" stroke="#676767" stroke-width="1.5" stroke-linecap="round" stroke-linejoin="round"/>
</svg>
