<svg width="45" height="44" viewBox="0 0 45 44" fill="none" xmlns="http://www.w3.org/2000/svg">
<rect x="0.469727" width="44" height="44" rx="22" fill="#F5F5F5"/>
<path d="M19.4697 27.75C19.0597 27.75 18.7197 27.41 18.7197 27V22.81L17.9997 23.53C17.7097 23.82 17.2297 23.82 16.9397 23.53C16.6497 23.24 16.6497 22.76 16.9397 22.47L18.9397 20.47C19.1497 20.26 19.4797 20.19 19.7597 20.31C20.0397 20.42 20.2197 20.7 20.2197 21V27C20.2197 27.41 19.8797 27.75 19.4697 27.75Z" fill="#69417E"/>
<path d="M21.4697 23.7499C21.2797 23.7499 21.0897 23.6799 20.9397 23.5299L18.9397 21.5299C18.6497 21.2399 18.6497 20.7599 18.9397 20.4699C19.2297 20.1799 19.7097 20.1799 19.9997 20.4699L21.9997 22.4699C22.2897 22.7599 22.2897 23.2399 21.9997 23.5299C21.8497 23.6799 21.6597 23.7499 21.4697 23.7499Z" fill="#69417E"/>
<path d="M25.4697 32.75H19.4697C14.0397 32.75 11.7197 30.43 11.7197 25V19C11.7197 13.57 14.0397 11.25 19.4697 11.25H24.4697C24.8797 11.25 25.2197 11.59 25.2197 12C25.2197 12.41 24.8797 12.75 24.4697 12.75H19.4697C14.8597 12.75 13.2197 14.39 13.2197 19V25C13.2197 29.61 14.8597 31.25 19.4697 31.25H25.4697C30.0797 31.25 31.7197 29.61 31.7197 25V20C31.7197 19.59 32.0597 19.25 32.4697 19.25C32.8797 19.25 33.2197 19.59 33.2197 20V25C33.2197 30.43 30.8997 32.75 25.4697 32.75Z" fill="#69417E"/>
<path d="M32.4697 20.75H28.4697C25.0497 20.75 23.7197 19.42 23.7197 16V12C23.7197 11.7 23.8997 11.42 24.1797 11.31C24.4597 11.19 24.7797 11.26 24.9997 11.47L32.9997 19.47C33.2097 19.68 33.2797 20.01 33.1597 20.29C33.0397 20.57 32.7697 20.75 32.4697 20.75ZM25.2197 13.81V16C25.2197 18.58 25.8897 19.25 28.4697 19.25H30.6597L25.2197 13.81Z" fill="#69417E"/>
</svg>
